SplineFontDB: 3.0
FontName: Pixelade
FullName: Pixelade
FamilyName: Pixelade
Weight: Book
Copyright: (c) 2001  josep Patau i Bellart & astramat-antaviana typeface division  patau@antaviana.com, this typeface is Publishware, submit your works please, more info in www.astramat.com/typeface
Version: Macromedia Fontographer 4.1.5 18/7/01
ItalicAngle: 0
UnderlinePosition: -100
UnderlineWidth: 0
Ascent: 1040
Descent: 260
InvalidEm: 0
sfntRevision: 0x00010000
LayerCount: 2
Layer: 0 1 "Back" 1
Layer: 1 1 "Fore" 0
XUID: [1021 7 699533514 8739]
StyleMap: 0x0040
FSType: 1
OS2Version: 0
OS2_WeightWidthSlopeOnly: 0
OS2_UseTypoMetrics: 0
CreationTime: 995476994
ModificationTime: 1500010208
PfmFamily: 81
TTFWeight: 400
TTFWidth: 5
LineGap: 0
VLineGap: 0
Panose: 0 0 4 0 0 0 0 0 0 0
OS2TypoAscent: 1001
OS2TypoAOffset: 0
OS2TypoDescent: -300
OS2TypoDOffset: 0
OS2TypoLinegap: 0
OS2WinAscent: 1001
OS2WinAOffset: 0
OS2WinDescent: 300
OS2WinDOffset: 0
HheadAscent: 1001
HheadAOffset: 0
HheadDescent: -300
HheadDOffset: 0
OS2SubXSize: 910
OS2SubYSize: 845
OS2SubXOff: 0
OS2SubYOff: 186
OS2SupXSize: 910
OS2SupYSize: 845
OS2SupXOff: 0
OS2SupYOff: 589
OS2StrikeYSize: 65
OS2StrikeYPos: 336
OS2Vendor: 'Alts'
OS2UnicodeRanges: 00000000.00000000.00000000.00000000
DEI: 91125
ShortTable: maxp 16
  1
  0
  162
  385
  15
  0
  0
  2
  8
  64
  10
  0
  114
  0
  0
  0
EndShort
LangName: 1033 "+AKkA 2001  josep Patau i Bellart & astramat+IBAA-antaviana typeface division  patau@antaviana.com, this typeface is Publishware, submit your works please, more info in www.astramat.com/typeface" "" "Regular" "Macromedia Fontographer 4.1.5 Pixelade" "" "Macromedia Fontographer 4.1.5 18/7/01"
Encoding: UnicodeBmp
UnicodeInterp: none
NameList: AGL For New Fonts
DisplaySize: -48
AntiAlias: 1
FitToEm: 0
WinInfo: 0 24 19
BeginChars: 65542 180

StartChar: exclam
Encoding: 33 33 4
Width: 200
Flags: W
LayerCount: 2
Fore
SplineSet
100 0 m 1,0,-1
 0 0 l 1,1,-1
 0 100 l 1,2,-1
 100 100 l 1,3,-1
 100 0 l 1,0,-1
100 200 m 1,4,-1
 0 200 l 1,5,-1
 0 800 l 1,6,-1
 100 800 l 1,7,-1
 100 200 l 1,4,-1
EndSplineSet
Validated: 1
EndChar

StartChar: quotedbl
Encoding: 34 34 5
Width: 500
Flags: W
LayerCount: 2
Fore
SplineSet
300 500 m 1,0,-1
 400 500 l 1,1,-1
 400 700 l 1,2,-1
 300 700 l 1,3,-1
 300 500 l 1,0,-1
300 500 m 1,4,-1
 200 500 l 1,5,-1
 200 400 l 1,6,-1
 300 400 l 1,7,-1
 300 500 l 1,4,-1
100 500 m 1,8,-1
 0 500 l 1,9,-1
 0 400 l 1,10,-1
 100 400 l 1,11,-1
 100 500 l 1,8,-1
100 500 m 1,12,-1
 200 500 l 1,13,-1
 200 700 l 1,14,-1
 100 700 l 1,15,-1
 100 500 l 1,12,-1
EndSplineSet
Validated: 5
EndChar

StartChar: numbersign
Encoding: 35 35 6
Width: 600
Flags: W
LayerCount: 2
Fore
SplineSet
300 300 m 1,0,-1
 300 400 l 1,1,-1
 200 400 l 1,2,-1
 200 300 l 1,3,-1
 300 300 l 1,0,-1
500 200 m 1,4,-1
 400 200 l 1,5,-1
 400 0 l 1,6,-1
 300 0 l 1,7,-1
 300 200 l 1,8,-1
 200 200 l 1,9,-1
 200 0 l 1,10,-1
 100 0 l 1,11,-1
 100 200 l 1,12,-1
 0 200 l 1,13,-1
 0 300 l 1,14,-1
 100 300 l 1,15,-1
 100 400 l 1,16,-1
 0 400 l 1,17,-1
 0 500 l 1,18,-1
 100 500 l 1,19,-1
 100 700 l 1,20,-1
 200 700 l 1,21,-1
 200 500 l 1,22,-1
 300 500 l 1,23,-1
 300 700 l 1,24,-1
 400 700 l 1,25,-1
 400 500 l 1,26,-1
 500 500 l 1,27,-1
 500 400 l 1,28,-1
 400 400 l 1,29,-1
 400 300 l 1,30,-1
 500 300 l 1,31,-1
 500 200 l 1,4,-1
EndSplineSet
Validated: 1
EndChar

StartChar: dollar
Encoding: 36 36 7
Width: 600
Flags: W
LayerCount: 2
Fore
SplineSet
300 0 m 1,0,-1
 200 0 l 1,1,-1
 200 100 l 1,2,-1
 0 100 l 1,3,-1
 0 200 l 1,4,-1
 200 200 l 1,5,-1
 200 300 l 1,6,-1
 100 300 l 1,7,-1
 100 400 l 1,8,-1
 0 400 l 1,9,-1
 0 500 l 1,10,-1
 100 500 l 1,11,-1
 100 400 l 1,12,-1
 200 400 l 1,13,-1
 200 500 l 1,14,-1
 100 500 l 1,15,-1
 100 600 l 1,16,-1
 200 600 l 1,17,-1
 200 700 l 1,18,-1
 300 700 l 1,19,-1
 300 600 l 1,20,-1
 500 600 l 1,21,-1
 500 500 l 1,22,-1
 300 500 l 1,23,-1
 300 400 l 1,24,-1
 400 400 l 1,25,-1
 400 300 l 1,26,-1
 300 300 l 1,27,-1
 300 200 l 1,28,-1
 400 200 l 1,29,-1
 400 100 l 1,30,-1
 300 100 l 1,31,-1
 300 0 l 1,0,-1
400 300 m 1,32,-1
 500 300 l 1,33,-1
 500 200 l 1,34,-1
 400 200 l 1,35,-1
 400 300 l 1,32,-1
EndSplineSet
Validated: 5
EndChar

StartChar: percent
Encoding: 37 37 8
Width: 600
Flags: W
LayerCount: 2
Fore
SplineSet
100 0 m 1,0,-1
 0 0 l 1,1,-1
 0 100 l 1,2,-1
 100 100 l 1,3,-1
 100 0 l 1,0,-1
100 500 m 1,4,-1
 0 500 l 1,5,-1
 0 700 l 1,6,-1
 100 700 l 1,7,-1
 100 500 l 1,4,-1
500 0 m 1,8,-1
 400 0 l 1,9,-1
 400 200 l 1,10,-1
 500 200 l 1,11,-1
 500 0 l 1,8,-1
100 100 m 1,12,-1
 100 300 l 1,13,-1
 200 300 l 1,14,-1
 200 100 l 1,15,-1
 100 100 l 1,12,-1
200 300 m 1,16,-1
 200 400 l 1,17,-1
 300 400 l 1,18,-1
 300 300 l 1,19,-1
 200 300 l 1,16,-1
300 400 m 1,20,-1
 300 600 l 1,21,-1
 400 600 l 1,22,-1
 400 400 l 1,23,-1
 300 400 l 1,20,-1
400 600 m 1,24,-1
 400 700 l 1,25,-1
 500 700 l 1,26,-1
 500 600 l 1,27,-1
 400 600 l 1,24,-1
EndSplineSet
Validated: 5
EndChar

StartChar: ampersand
Encoding: 38 38 9
Width: 600
Flags: W
LayerCount: 2
Fore
SplineSet
400 0 m 1,0,-1
 500 0 l 1,1,-1
 500 100 l 1,2,-1
 400 100 l 1,3,-1
 400 0 l 1,0,-1
100 0 m 1,4,-1
 300 0 l 1,5,-1
 300 100 l 1,6,-1
 400 100 l 1,7,-1
 400 300 l 1,8,-1
 500 300 l 1,9,-1
 500 400 l 1,10,-1
 400 400 l 1,11,-1
 400 300 l 1,12,-1
 300 300 l 1,13,-1
 300 500 l 1,14,-1
 200 500 l 1,15,-1
 200 400 l 1,16,-1
 100 400 l 1,17,-1
 100 300 l 1,18,-1
 0 300 l 1,19,-1
 0 100 l 1,20,-1
 100 100 l 1,21,-1
 100 0 l 1,4,-1
300 100 m 1,22,-1
 100 100 l 1,23,-1
 100 300 l 1,24,-1
 200 300 l 1,25,-1
 200 200 l 1,26,-1
 300 200 l 1,27,-1
 300 100 l 1,22,-1
300 500 m 1,28,-1
 400 500 l 1,29,-1
 400 600 l 1,30,-1
 300 600 l 1,31,-1
 300 500 l 1,28,-1
300 600 m 1,32,-1
 300 700 l 1,33,-1
 200 700 l 1,34,-1
 200 600 l 1,35,-1
 300 600 l 1,32,-1
200 600 m 1,36,-1
 100 600 l 1,37,-1
 100 500 l 1,38,-1
 200 500 l 1,39,-1
 200 600 l 1,36,-1
EndSplineSet
Validated: 5
EndChar

StartChar: quotesingle
Encoding: 39 39 10
Width: 300
Flags: W
LayerCount: 2
Fore
SplineSet
100 400 m 1,0,-1
 0 400 l 1,1,-1
 0 500 l 1,2,-1
 100 500 l 1,3,-1
 100 400 l 1,0,-1
100 500 m 1,4,-1
 100 700 l 1,5,-1
 200 700 l 1,6,-1
 200 500 l 1,7,-1
 100 500 l 1,4,-1
EndSplineSet
Validated: 5
EndChar

StartChar: parenleft
Encoding: 40 40 11
Width: 400
Flags: W
LayerCount: 2
Fore
SplineSet
300 0 m 1,0,-1
 200 0 l 1,1,-1
 200 100 l 1,2,-1
 300 100 l 1,3,-1
 300 0 l 1,0,-1
200 100 m 1,4,-1
 100 100 l 1,5,-1
 100 200 l 1,6,-1
 200 200 l 1,7,-1
 200 100 l 1,4,-1
100 200 m 1,8,-1
 0 200 l 1,9,-1
 0 500 l 1,10,-1
 100 500 l 1,11,-1
 100 200 l 1,8,-1
100 500 m 1,12,-1
 100 600 l 1,13,-1
 200 600 l 1,14,-1
 200 500 l 1,15,-1
 100 500 l 1,12,-1
200 600 m 1,16,-1
 200 700 l 1,17,-1
 300 700 l 1,18,-1
 300 600 l 1,19,-1
 200 600 l 1,16,-1
EndSplineSet
Validated: 5
EndChar

StartChar: parenright
Encoding: 41 41 12
Width: 400
Flags: W
LayerCount: 2
Fore
SplineSet
0 0 m 1,0,-1
 100 0 l 1,1,-1
 100 100 l 1,2,-1
 0 100 l 1,3,-1
 0 0 l 1,0,-1
100 100 m 1,4,-1
 200 100 l 1,5,-1
 200 200 l 1,6,-1
 100 200 l 1,7,-1
 100 100 l 1,4,-1
200 200 m 1,8,-1
 300 200 l 1,9,-1
 300 500 l 1,10,-1
 200 500 l 1,11,-1
 200 200 l 1,8,-1
200 500 m 1,12,-1
 200 600 l 1,13,-1
 100 600 l 1,14,-1
 100 500 l 1,15,-1
 200 500 l 1,12,-1
100 600 m 1,16,-1
 100 700 l 1,17,-1
 0 700 l 1,18,-1
 0 600 l 1,19,-1
 100 600 l 1,16,-1
EndSplineSet
Validated: 5
EndChar

StartChar: asterisk
Encoding: 42 42 13
Width: 600
Flags: W
LayerCount: 2
Fore
SplineSet
100 400 m 1,0,-1
 0 400 l 1,1,-1
 0 500 l 1,2,-1
 100 500 l 1,3,-1
 100 400 l 1,0,-1
400 400 m 1,4,-1
 300 400 l 1,5,-1
 300 500 l 1,6,-1
 100 500 l 1,7,-1
 100 600 l 1,8,-1
 0 600 l 1,9,-1
 0 700 l 1,10,-1
 100 700 l 1,11,-1
 100 600 l 1,12,-1
 300 600 l 1,13,-1
 300 500 l 1,14,-1
 400 500 l 1,15,-1
 400 400 l 1,4,-1
300 600 m 1,16,-1
 300 700 l 1,17,-1
 400 700 l 1,18,-1
 400 600 l 1,19,-1
 300 600 l 1,16,-1
EndSplineSet
Validated: 5
EndChar

StartChar: plus
Encoding: 43 43 14
Width: 600
Flags: W
LayerCount: 2
Fore
SplineSet
500 300 m 1,0,-1
 300 300 l 1,1,-1
 300 100 l 1,2,-1
 200 100 l 1,3,-1
 200 300 l 1,4,-1
 0 300 l 1,5,-1
 0 400 l 1,6,-1
 200 400 l 1,7,-1
 200 600 l 1,8,-1
 300 600 l 1,9,-1
 300 400 l 1,10,-1
 500 400 l 1,11,-1
 500 300 l 1,0,-1
EndSplineSet
Validated: 1
EndChar

StartChar: comma
Encoding: 44 44 15
Width: 300
Flags: W
LayerCount: 2
Fore
SplineSet
108 0 m 1,0,-1
 0 0 l 1,1,-1
 0 200 l 1,2,-1
 108 200 l 1,3,-1
 108 0 l 1,0,-1
EndSplineSet
Validated: 1
EndChar

StartChar: hyphen
Encoding: 45 45 16
AltUni2: 002010.ffffffff.0
Width: 600
Flags: W
LayerCount: 2
Fore
SplineSet
500 300 m 1,0,-1
 0 300 l 1,1,-1
 0 400 l 1,2,-1
 500 400 l 1,3,-1
 500 300 l 1,0,-1
EndSplineSet
Validated: 1
EndChar

StartChar: period
Encoding: 46 46 17
Width: 200
Flags: W
LayerCount: 2
Fore
SplineSet
100 0 m 1,0,-1
 0 0 l 1,1,-1
 0 100 l 1,2,-1
 100 100 l 1,3,-1
 100 0 l 1,0,-1
EndSplineSet
Validated: 1
EndChar

StartChar: slash
Encoding: 47 47 18
Width: 600
Flags: W
LayerCount: 2
Fore
SplineSet
100 0 m 1,0,-1
 0 0 l 1,1,-1
 0 100 l 1,2,-1
 100 100 l 1,3,-1
 100 0 l 1,0,-1
100 100 m 1,4,-1
 100 300 l 1,5,-1
 200 300 l 1,6,-1
 200 100 l 1,7,-1
 100 100 l 1,4,-1
200 300 m 1,8,-1
 200 400 l 1,9,-1
 300 400 l 1,10,-1
 300 300 l 1,11,-1
 200 300 l 1,8,-1
300 400 m 1,12,-1
 300 600 l 1,13,-1
 400 600 l 1,14,-1
 400 400 l 1,15,-1
 300 400 l 1,12,-1
400 600 m 1,16,-1
 400 700 l 1,17,-1
 500 700 l 1,18,-1
 500 600 l 1,19,-1
 400 600 l 1,16,-1
EndSplineSet
Validated: 5
EndChar

StartChar: zero
Encoding: 48 48 19
Width: 600
Flags: W
LayerCount: 2
Fore
SplineSet
400 0 m 1,0,-1
 100 0 l 1,1,-1
 100 100 l 1,2,-1
 400 100 l 1,3,-1
 400 0 l 1,0,-1
100 100 m 1,4,-1
 0 100 l 1,5,-1
 0 600 l 1,6,-1
 100 600 l 1,7,-1
 100 300 l 1,8,-1
 200 300 l 1,9,-1
 200 400 l 1,10,-1
 300 400 l 1,11,-1
 300 500 l 1,12,-1
 400 500 l 1,13,-1
 400 600 l 1,14,-1
 500 600 l 1,15,-1
 500 100 l 1,16,-1
 400 100 l 1,17,-1
 400 400 l 1,18,-1
 300 400 l 1,19,-1
 300 300 l 1,20,-1
 200 300 l 1,21,-1
 200 200 l 1,22,-1
 100 200 l 1,23,-1
 100 100 l 1,4,-1
400 600 m 1,24,-1
 100 600 l 1,25,-1
 100 700 l 1,26,-1
 400 700 l 1,27,-1
 400 600 l 1,24,-1
EndSplineSet
Validated: 5
EndChar

StartChar: one
Encoding: 49 49 20
Width: 400
Flags: W
LayerCount: 2
Fore
SplineSet
0 0 m 1,0,-1
 0 100 l 1,1,-1
 100 100 l 1,2,-1
 100 500 l 1,3,-1
 0 500 l 1,4,-1
 0 600 l 1,5,-1
 100 600 l 1,6,-1
 100 700 l 1,7,-1
 200 700 l 1,8,-1
 200 100 l 1,9,-1
 300 100 l 1,10,-1
 300 0 l 1,11,-1
 0 0 l 1,0,-1
EndSplineSet
Validated: 1
EndChar

StartChar: two
Encoding: 50 50 21
Width: 600
Flags: W
LayerCount: 2
Fore
SplineSet
100 700 m 1,0,-1
 400 700 l 1,1,-1
 400 600 l 1,2,-1
 100 600 l 1,3,-1
 100 500 l 1,4,-1
 0 500 l 1,5,-1
 0 600 l 1,6,-1
 100 600 l 1,7,-1
 100 700 l 1,0,-1
500 100 m 1,8,-1
 500 0 l 1,9,-1
 0 0 l 1,10,-1
 0 200 l 1,11,-1
 100 200 l 1,12,-1
 100 100 l 1,13,-1
 500 100 l 1,8,-1
400 600 m 1,14,-1
 500 600 l 1,15,-1
 500 400 l 1,16,-1
 400 400 l 1,17,-1
 400 600 l 1,14,-1
400 400 m 1,18,-1
 400 300 l 1,19,-1
 200 300 l 1,20,-1
 200 400 l 1,21,-1
 400 400 l 1,18,-1
100 200 m 1,22,-1
 100 300 l 1,23,-1
 200 300 l 1,24,-1
 200 200 l 1,25,-1
 100 200 l 1,22,-1
EndSplineSet
Validated: 5
EndChar

StartChar: three
Encoding: 51 51 22
Width: 600
Flags: W
LayerCount: 2
Fore
SplineSet
400 0 m 1,0,-1
 100 0 l 1,1,-1
 100 100 l 1,2,-1
 400 100 l 1,3,-1
 400 0 l 1,0,-1
400 100 m 1,4,-1
 400 300 l 1,5,-1
 500 300 l 1,6,-1
 500 100 l 1,7,-1
 400 100 l 1,4,-1
400 300 m 1,8,-1
 200 300 l 1,9,-1
 200 400 l 1,10,-1
 400 400 l 1,11,-1
 400 300 l 1,8,-1
400 600 m 1,12,-1
 100 600 l 1,13,-1
 100 700 l 1,14,-1
 400 700 l 1,15,-1
 400 600 l 1,12,-1
400 600 m 1,16,-1
 500 600 l 1,17,-1
 500 400 l 1,18,-1
 400 400 l 1,19,-1
 400 600 l 1,16,-1
100 600 m 1,20,-1
 100 500 l 1,21,-1
 0 500 l 1,22,-1
 0 600 l 1,23,-1
 100 600 l 1,20,-1
100 100 m 1,24,-1
 0 100 l 1,25,-1
 0 200 l 1,26,-1
 100 200 l 1,27,-1
 100 100 l 1,24,-1
EndSplineSet
Validated: 5
EndChar

StartChar: four
Encoding: 52 52 23
Width: 600
Flags: W
LayerCount: 2
Fore
SplineSet
300 600 m 1,0,-1
 300 700 l 1,1,-1
 500 700 l 1,2,-1
 500 0 l 1,3,-1
 400 0 l 1,4,-1
 400 200 l 1,5,-1
 0 200 l 1,6,-1
 0 400 l 1,7,-1
 100 400 l 1,8,-1
 100 500 l 1,9,-1
 200 500 l 1,10,-1
 200 600 l 1,11,-1
 300 600 l 1,0,-1
300 600 m 1,12,-1
 300 500 l 1,13,-1
 200 500 l 1,14,-1
 200 400 l 1,15,-1
 100 400 l 1,16,-1
 100 300 l 1,17,-1
 400 300 l 1,18,-1
 400 600 l 1,19,-1
 300 600 l 1,12,-1
EndSplineSet
Validated: 5
EndChar

StartChar: five
Encoding: 53 53 24
Width: 600
Flags: W
LayerCount: 2
Fore
SplineSet
400 400 m 1,0,-1
 500 400 l 1,1,-1
 500 100 l 1,2,-1
 400 100 l 1,3,-1
 400 400 l 1,0,-1
400 400 m 1,4,-1
 0 400 l 1,5,-1
 0 700 l 1,6,-1
 500 700 l 1,7,-1
 500 600 l 1,8,-1
 100 600 l 1,9,-1
 100 500 l 1,10,-1
 400 500 l 1,11,-1
 400 400 l 1,4,-1
400 100 m 1,12,-1
 400 0 l 1,13,-1
 100 0 l 1,14,-1
 100 100 l 1,15,-1
 400 100 l 1,12,-1
100 100 m 1,16,-1
 0 100 l 1,17,-1
 0 200 l 1,18,-1
 100 200 l 1,19,-1
 100 100 l 1,16,-1
EndSplineSet
Validated: 5
EndChar

StartChar: six
Encoding: 54 54 25
Width: 600
Flags: W
LayerCount: 2
Fore
SplineSet
400 300 m 1,0,-1
 100 300 l 1,1,-1
 100 100 l 1,2,-1
 400 100 l 1,3,-1
 400 300 l 1,0,-1
400 300 m 1,4,-1
 500 300 l 1,5,-1
 500 100 l 1,6,-1
 400 100 l 1,7,-1
 400 0 l 1,8,-1
 100 0 l 1,9,-1
 100 100 l 1,10,-1
 0 100 l 1,11,-1
 0 600 l 1,12,-1
 100 600 l 1,13,-1
 100 400 l 1,14,-1
 400 400 l 1,15,-1
 400 300 l 1,4,-1
100 600 m 1,16,-1
 100 700 l 1,17,-1
 400 700 l 1,18,-1
 400 600 l 1,19,-1
 100 600 l 1,16,-1
EndSplineSet
Validated: 5
EndChar

StartChar: seven
Encoding: 55 55 26
Width: 600
Flags: W
LayerCount: 2
Fore
SplineSet
0 700 m 1,0,-1
 500 700 l 1,1,-1
 500 400 l 1,2,-1
 400 400 l 1,3,-1
 400 600 l 1,4,-1
 0 600 l 1,5,-1
 0 700 l 1,0,-1
200 0 m 1,6,-1
 200 300 l 1,7,-1
 300 300 l 1,8,-1
 300 0 l 1,9,-1
 200 0 l 1,6,-1
400 400 m 1,10,-1
 400 300 l 1,11,-1
 301 300 l 1,12,-1
 301 399 l 1,13,-1
 400 400 l 1,10,-1
EndSplineSet
EndChar

StartChar: eight
Encoding: 56 56 27
Width: 600
Flags: W
LayerCount: 2
Fore
SplineSet
400 0 m 1,0,-1
 100 0 l 1,1,-1
 100 100 l 1,2,-1
 0 100 l 1,3,-1
 0 300 l 1,4,-1
 100 300 l 1,5,-1
 100 100 l 1,6,-1
 400 100 l 1,7,-1
 400 0 l 1,0,-1
400 100 m 1,8,-1
 400 300 l 1,9,-1
 500 300 l 1,10,-1
 500 100 l 1,11,-1
 400 100 l 1,8,-1
400 300 m 1,12,-1
 100 300 l 1,13,-1
 100 400 l 1,14,-1
 400 400 l 1,15,-1
 400 300 l 1,12,-1
100 400 m 1,16,-1
 0 400 l 1,17,-1
 0 600 l 1,18,-1
 100 600 l 1,19,-1
 100 400 l 1,16,-1
400 400 m 1,20,-1
 400 600 l 1,21,-1
 500 600 l 1,22,-1
 500 400 l 1,23,-1
 400 400 l 1,20,-1
400 600 m 1,24,-1
 100 600 l 1,25,-1
 100 700 l 1,26,-1
 400 700 l 1,27,-1
 400 600 l 1,24,-1
EndSplineSet
Validated: 5
EndChar

StartChar: nine
Encoding: 57 57 28
Width: 600
Flags: W
LayerCount: 2
Fore
SplineSet
400 600 m 1,0,-1
 100 600 l 1,1,-1
 100 400 l 1,2,-1
 400 400 l 1,3,-1
 400 600 l 1,0,-1
400 600 m 1,4,-1
 500 600 l 1,5,-1
 500 100 l 1,6,-1
 400 100 l 1,7,-1
 400 300 l 1,8,-1
 100 300 l 1,9,-1
 100 400 l 1,10,-1
 0 400 l 1,11,-1
 0 600 l 1,12,-1
 100 600 l 1,13,-1
 100 700 l 1,14,-1
 400 700 l 1,15,-1
 400 600 l 1,4,-1
400 100 m 1,16,-1
 400 0 l 1,17,-1
 100 0 l 1,18,-1
 100 100 l 1,19,-1
 400 100 l 1,16,-1
EndSplineSet
Validated: 5
EndChar

StartChar: colon
Encoding: 58 58 29
Width: 200
Flags: W
LayerCount: 2
Fore
SplineSet
100 0 m 1,0,-1
 0 0 l 1,1,-1
 0 100 l 1,2,-1
 100 100 l 1,3,-1
 100 0 l 1,0,-1
100 300 m 1,4,-1
 0 300 l 1,5,-1
 0 400 l 1,6,-1
 100 400 l 1,7,-1
 100 300 l 1,4,-1
EndSplineSet
Validated: 1
EndChar

StartChar: semicolon
Encoding: 59 59 30
Width: 200
Flags: W
LayerCount: 2
Fore
SplineSet
100 -100 m 1,0,-1
 0 -100 l 1,1,-1
 0 186 l 1,2,-1
 100 186 l 1,3,-1
 100 -100 l 1,0,-1
100 300 m 1,4,-1
 0 300 l 1,5,-1
 0 400 l 1,6,-1
 100 400 l 1,7,-1
 100 300 l 1,4,-1
EndSplineSet
Validated: 1
EndChar

StartChar: less
Encoding: 60 60 31
Width: 500
Flags: W
LayerCount: 2
Fore
SplineSet
400 0 m 1,0,-1
 300 0 l 1,1,-1
 300 100 l 1,2,-1
 200 100 l 1,3,-1
 200 200 l 1,4,-1
 300 200 l 1,5,-1
 300 100 l 1,6,-1
 400 100 l 1,7,-1
 400 0 l 1,0,-1
100 300 m 1,8,-1
 0 300 l 1,9,-1
 0 400 l 1,10,-1
 100 400 l 1,11,-1
 100 300 l 1,8,-1
100 300 m 1,12,-1
 200 300 l 1,13,-1
 200 200 l 1,14,-1
 100 200 l 1,15,-1
 100 300 l 1,12,-1
100 400 m 1,16,-1
 100 500 l 1,17,-1
 200 500 l 1,18,-1
 200 400 l 1,19,-1
 100 400 l 1,16,-1
200 500 m 1,20,-1
 200 600 l 1,21,-1
 300 600 l 1,22,-1
 300 500 l 1,23,-1
 200 500 l 1,20,-1
300 600 m 1,24,-1
 300 700 l 1,25,-1
 400 700 l 1,26,-1
 400 600 l 1,27,-1
 300 600 l 1,24,-1
EndSplineSet
Validated: 5
EndChar

StartChar: equal
Encoding: 61 61 32
Width: 600
Flags: W
LayerCount: 2
Fore
SplineSet
500 200 m 1,0,-1
 0 200 l 1,1,-1
 0 300 l 1,2,-1
 500 300 l 1,3,-1
 500 200 l 1,0,-1
500 400 m 1,4,-1
 0 400 l 1,5,-1
 0 500 l 1,6,-1
 500 500 l 1,7,-1
 500 400 l 1,4,-1
EndSplineSet
Validated: 1
EndChar

StartChar: greater
Encoding: 62 62 33
Width: 500
Flags: W
LayerCount: 2
Fore
SplineSet
0 0 m 1,0,-1
 100 0 l 1,1,-1
 100 100 l 1,2,-1
 200 100 l 1,3,-1
 200 200 l 1,4,-1
 100 200 l 1,5,-1
 100 100 l 1,6,-1
 0 100 l 1,7,-1
 0 0 l 1,0,-1
300 300 m 1,8,-1
 400 300 l 1,9,-1
 400 400 l 1,10,-1
 300 400 l 1,11,-1
 300 300 l 1,8,-1
300 300 m 1,12,-1
 200 300 l 1,13,-1
 200 200 l 1,14,-1
 300 200 l 1,15,-1
 300 300 l 1,12,-1
300 400 m 1,16,-1
 300 500 l 1,17,-1
 200 500 l 1,18,-1
 200 400 l 1,19,-1
 300 400 l 1,16,-1
200 500 m 1,20,-1
 200 600 l 1,21,-1
 100 600 l 1,22,-1
 100 500 l 1,23,-1
 200 500 l 1,20,-1
100 600 m 1,24,-1
 100 700 l 1,25,-1
 0 700 l 1,26,-1
 0 600 l 1,27,-1
 100 600 l 1,24,-1
EndSplineSet
Validated: 5
EndChar

StartChar: question
Encoding: 63 63 34
Width: 600
Flags: W
LayerCount: 2
Fore
SplineSet
300 0 m 1,0,-1
 200 0 l 1,1,-1
 200 100 l 1,2,-1
 300 100 l 1,3,-1
 300 0 l 1,0,-1
300 200 m 1,4,-1
 200 200 l 1,5,-1
 200 300 l 1,6,-1
 300 300 l 1,7,-1
 300 200 l 1,4,-1
100 500 m 1,8,-1
 0 500 l 1,9,-1
 0 600 l 1,10,-1
 100 600 l 1,11,-1
 100 500 l 1,8,-1
300 300 m 1,12,-1
 300 400 l 1,13,-1
 400 400 l 1,14,-1
 400 300 l 1,15,-1
 300 300 l 1,12,-1
400 400 m 1,16,-1
 400 600 l 1,17,-1
 500 600 l 1,18,-1
 500 400 l 1,19,-1
 400 400 l 1,16,-1
400 600 m 1,20,-1
 100 600 l 1,21,-1
 100 700 l 1,22,-1
 400 700 l 1,23,-1
 400 600 l 1,20,-1
EndSplineSet
Validated: 5
EndChar

StartChar: at
Encoding: 64 64 35
Width: 800
Flags: W
LayerCount: 2
Fore
SplineSet
400 100 m 1,0,-1
 400 200 l 1,1,-1
 300 200 l 1,2,-1
 300 100 l 1,3,-1
 400 100 l 1,0,-1
700 -200 m 1,4,-1
 200 -200 l 1,5,-1
 200 -100 l 1,6,-1
 700 -100 l 1,7,-1
 700 -200 l 1,4,-1
100 300 m 1,8,-1
 100 0 l 1,9,-1
 200 0 l 1,10,-1
 200 -100 l 1,11,-1
 100 -100 l 1,12,-1
 100 0 l 1,13,-1
 0 0 l 1,14,-1
 0 300 l 1,15,-1
 100 300 l 1,8,-1
100 300 m 1,16,-1
 100 400 l 1,17,-1
 200 400 l 1,18,-1
 200 300 l 1,19,-1
 100 300 l 1,16,-1
300 200 m 1,20,-1
 300 300 l 1,21,-1
 500 300 l 1,22,-1
 500 100 l 1,23,-1
 600 100 l 1,24,-1
 600 400 l 1,25,-1
 700 400 l 1,26,-1
 700 100 l 1,27,-1
 600 100 l 1,28,-1
 600 0 l 1,29,-1
 300 0 l 1,30,-1
 300 100 l 1,31,-1
 200 100 l 1,32,-1
 200 200 l 1,33,-1
 300 200 l 1,20,-1
600 400 m 1,34,-1
 200 400 l 1,35,-1
 200 500 l 1,36,-1
 600 500 l 1,37,-1
 600 400 l 1,34,-1
EndSplineSet
Validated: 5
EndChar

StartChar: A
Encoding: 65 65 36
Width: 600
Flags: W
LayerCount: 2
Fore
SplineSet
500 0 m 1,0,-1
 400 0 l 1,1,-1
 400 300 l 1,2,-1
 100 300 l 1,3,-1
 100 0 l 1,4,-1
 0 0 l 1,5,-1
 0 600 l 1,6,-1
 100 600 l 1,7,-1
 100 400 l 1,8,-1
 400 400 l 1,9,-1
 400 600 l 1,10,-1
 100 600 l 1,11,-1
 100 700 l 1,12,-1
 400 700 l 1,13,-1
 400 600 l 1,14,-1
 500 600 l 1,15,-1
 500 0 l 1,0,-1
EndSplineSet
Validated: 5
EndChar

StartChar: B
Encoding: 66 66 37
Width: 600
Flags: W
LayerCount: 2
Fore
SplineSet
400 300 m 1,0,-1
 100 300 l 1,1,-1
 100 100 l 1,2,-1
 400 100 l 1,3,-1
 400 300 l 1,0,-1
400 300 m 1,4,-1
 500 300 l 1,5,-1
 500 100 l 1,6,-1
 400 100 l 1,7,-1
 400 0 l 1,8,-1
 0 0 l 1,9,-1
 0 700 l 1,10,-1
 400 700 l 1,11,-1
 400 600 l 1,12,-1
 100 600 l 1,13,-1
 100 400 l 1,14,-1
 400 400 l 1,15,-1
 400 600 l 1,16,-1
 500 600 l 1,17,-1
 500 400 l 1,18,-1
 400 400 l 1,19,-1
 400 300 l 1,4,-1
EndSplineSet
Validated: 5
EndChar

StartChar: C
Encoding: 67 67 38
Width: 600
Flags: W
LayerCount: 2
Fore
SplineSet
400 0 m 1,0,-1
 100 0 l 1,1,-1
 100 100 l 1,2,-1
 400 100 l 1,3,-1
 400 0 l 1,0,-1
100 100 m 1,4,-1
 0 100 l 1,5,-1
 0 600 l 1,6,-1
 100 600 l 1,7,-1
 100 100 l 1,4,-1
100 600 m 1,8,-1
 100 700 l 1,9,-1
 400 700 l 1,10,-1
 400 600 l 1,11,-1
 100 600 l 1,8,-1
400 600 m 1,12,-1
 500 600 l 1,13,-1
 500 500 l 1,14,-1
 400 500 l 1,15,-1
 400 600 l 1,12,-1
400 100 m 1,16,-1
 400 200 l 1,17,-1
 500 200 l 1,18,-1
 500 100 l 1,19,-1
 400 100 l 1,16,-1
EndSplineSet
Validated: 5
EndChar

StartChar: D
Encoding: 68 68 39
Width: 600
Flags: W
LayerCount: 2
Fore
SplineSet
500 100 m 1,0,-1
 400 100 l 1,1,-1
 400 0 l 1,2,-1
 0 0 l 1,3,-1
 0 700 l 1,4,-1
 400 700 l 1,5,-1
 400 601 l 1,6,-1
 100 601 l 1,7,-1
 100 101 l 1,8,-1
 400 101 l 1,9,-1
 400 601 l 1,10,-1
 500 601 l 1,11,-1
 500 100 l 1,0,-1
EndSplineSet
Validated: 5
EndChar

StartChar: E
Encoding: 69 69 40
Width: 600
Flags: W
LayerCount: 2
Fore
SplineSet
500 0 m 1,0,-1
 0 0 l 1,1,-1
 0 700 l 1,2,-1
 500 700 l 1,3,-1
 500 600 l 1,4,-1
 100 600 l 1,5,-1
 100 400 l 1,6,-1
 370 400 l 1,7,-1
 370 300 l 1,8,-1
 100 300 l 1,9,-1
 100 100 l 1,10,-1
 500 100 l 1,11,-1
 500 0 l 1,0,-1
EndSplineSet
Validated: 1
EndChar

StartChar: F
Encoding: 70 70 41
Width: 600
Flags: W
LayerCount: 2
Fore
SplineSet
400 300 m 1,0,-1
 100 300 l 1,1,-1
 100 0 l 1,2,-1
 0 0 l 1,3,-1
 0 700 l 1,4,-1
 500 700 l 1,5,-1
 500 600 l 1,6,-1
 100 600 l 1,7,-1
 100 400 l 1,8,-1
 400 400 l 1,9,-1
 400 300 l 1,0,-1
EndSplineSet
Validated: 1
EndChar

StartChar: G
Encoding: 71 71 42
Width: 600
Flags: W
LayerCount: 2
Fore
SplineSet
100 600 m 1,0,-1
 100 100 l 1,1,-1
 400 100 l 1,2,-1
 400 300 l 1,3,-1
 300 300 l 1,4,-1
 300 400 l 1,5,-1
 500 400 l 1,6,-1
 500 100 l 1,7,-1
 400 100 l 1,8,-1
 400 0 l 1,9,-1
 100 0 l 1,10,-1
 100 100 l 1,11,-1
 0 100 l 1,12,-1
 0 600 l 1,13,-1
 100 600 l 1,0,-1
100 600 m 1,14,-1
 100 700 l 1,15,-1
 500 700 l 1,16,-1
 500 600 l 1,17,-1
 100 600 l 1,14,-1
EndSplineSet
Validated: 5
EndChar

StartChar: H
Encoding: 72 72 43
Width: 600
Flags: W
LayerCount: 2
Fore
SplineSet
500 0 m 1,0,-1
 400 0 l 1,1,-1
 400 300 l 1,2,-1
 100 300 l 1,3,-1
 100 0 l 1,4,-1
 0 0 l 1,5,-1
 0 700 l 1,6,-1
 100 700 l 1,7,-1
 100 400 l 1,8,-1
 400 400 l 1,9,-1
 400 700 l 1,10,-1
 500 700 l 1,11,-1
 500 0 l 1,0,-1
EndSplineSet
Validated: 1
EndChar

StartChar: I
Encoding: 73 73 44
Width: 400
Flags: W
LayerCount: 2
Fore
SplineSet
300 0 m 1,0,-1
 0 0 l 1,1,-1
 0 100 l 1,2,-1
 100 100 l 1,3,-1
 100 600 l 1,4,-1
 0 600 l 1,5,-1
 0 700 l 1,6,-1
 300 700 l 1,7,-1
 300 600 l 1,8,-1
 200 600 l 1,9,-1
 200 100 l 1,10,-1
 300 100 l 1,11,-1
 300 0 l 1,0,-1
EndSplineSet
Validated: 1
EndChar

StartChar: J
Encoding: 74 74 45
Width: 600
Flags: W
LayerCount: 2
Fore
SplineSet
400 0 m 1,0,-1
 100 0 l 1,1,-1
 100 100 l 1,2,-1
 0 100 l 1,3,-1
 0 300 l 1,4,-1
 100 300 l 1,5,-1
 100 100 l 1,6,-1
 400 100 l 1,7,-1
 400 0 l 1,0,-1
401 100 m 1,8,-1
 401 700 l 1,9,-1
 501 700 l 1,10,-1
 501 100 l 1,11,-1
 401 100 l 1,8,-1
EndSplineSet
EndChar

StartChar: K
Encoding: 75 75 46
Width: 600
Flags: W
LayerCount: 2
Fore
SplineSet
400 700 m 1,0,-1
 500 700 l 1,1,-1
 500 600 l 1,2,-1
 400 600 l 1,3,-1
 400 500 l 1,4,-1
 300 500 l 1,5,-1
 300 400 l 1,6,-1
 200 400 l 1,7,-1
 200 300 l 1,8,-1
 300 300 l 1,9,-1
 300 200 l 1,10,-1
 400 200 l 1,11,-1
 400 100 l 1,12,-1
 300 100 l 1,13,-1
 300 200 l 1,14,-1
 200 200 l 1,15,-1
 200 300 l 1,16,-1
 100 300 l 1,17,-1
 100 0 l 1,18,-1
 0 0 l 1,19,-1
 0 700 l 1,20,-1
 100 700 l 1,21,-1
 100 400 l 1,22,-1
 200 400 l 1,23,-1
 200 500 l 1,24,-1
 300 500 l 1,25,-1
 300 600 l 1,26,-1
 400 600 l 1,27,-1
 400 700 l 1,0,-1
400 100 m 1,28,-1
 500 100 l 1,29,-1
 500 0 l 1,30,-1
 400 0 l 1,31,-1
 400 100 l 1,28,-1
EndSplineSet
Validated: 5
EndChar

StartChar: L
Encoding: 76 76 47
Width: 600
Flags: W
LayerCount: 2
Fore
SplineSet
500 0 m 1,0,-1
 0 0 l 1,1,-1
 0 700 l 1,2,-1
 100 700 l 1,3,-1
 100 100 l 1,4,-1
 500 100 l 1,5,-1
 500 0 l 1,0,-1
EndSplineSet
Validated: 1
EndChar

StartChar: M
Encoding: 77 77 48
Width: 600
Flags: W
LayerCount: 2
Fore
SplineSet
500 0 m 1,0,-1
 400 0 l 1,1,-1
 400 500 l 1,2,-1
 300 500 l 1,3,-1
 300 600 l 1,4,-1
 400 600 l 1,5,-1
 400 700 l 1,6,-1
 500 700 l 1,7,-1
 500 0 l 1,0,-1
200 500 m 1,8,-1
 300 500 l 1,9,-1
 300 400 l 1,10,-1
 200 400 l 1,11,-1
 200 500 l 1,8,-1
200 500 m 1,12,-1
 100 500 l 1,13,-1
 100 0 l 1,14,-1
 0 0 l 1,15,-1
 0 700 l 1,16,-1
 100 700 l 1,17,-1
 100 600 l 1,18,-1
 200 600 l 1,19,-1
 200 500 l 1,12,-1
EndSplineSet
Validated: 5
EndChar

StartChar: N
Encoding: 78 78 49
Width: 600
Flags: W
LayerCount: 2
Fore
SplineSet
0 700 m 1,0,-1
 100 700 l 1,1,-1
 100 600 l 1,2,-1
 200 600 l 1,3,-1
 200 500 l 1,4,-1
 300 500 l 1,5,-1
 300 400 l 1,6,-1
 200 400 l 1,7,-1
 200 500 l 1,8,-1
 100 500 l 1,9,-1
 100 0 l 1,10,-1
 0 0 l 1,11,-1
 0 700 l 1,0,-1
400 700 m 1,12,-1
 500 700 l 1,13,-1
 500 0 l 1,14,-1
 400 0 l 1,15,-1
 400 300 l 1,16,-1
 300 300 l 1,17,-1
 300 400 l 1,18,-1
 400 400 l 1,19,-1
 400 700 l 1,12,-1
EndSplineSet
Validated: 5
EndChar

StartChar: O
Encoding: 79 79 50
Width: 600
Flags: W
LayerCount: 2
Fore
SplineSet
399 0 m 1,0,-1
 99 0 l 1,1,-1
 99 100 l 1,2,-1
 399 100 l 1,3,-1
 399 0 l 1,0,-1
99 100 m 1,4,-1
 0 100 l 1,5,-1
 0 600 l 1,6,-1
 99 600 l 1,7,-1
 99 100 l 1,4,-1
399 100 m 1,8,-1
 399 600 l 1,9,-1
 499 600 l 1,10,-1
 499 100 l 1,11,-1
 399 100 l 1,8,-1
399 600 m 1,12,-1
 99 600 l 1,13,-1
 99 700 l 1,14,-1
 399 700 l 1,15,-1
 399 600 l 1,12,-1
EndSplineSet
Validated: 5
EndChar

StartChar: P
Encoding: 80 80 51
Width: 500
Flags: W
LayerCount: 2
Fore
SplineSet
301 600 m 1,0,-1
 101 600 l 1,1,-1
 101 400 l 1,2,-1
 301 400 l 1,3,-1
 301 600 l 1,0,-1
301 600 m 1,4,-1
 401 600 l 1,5,-1
 401 400 l 1,6,-1
 301 400 l 1,7,-1
 301 300 l 1,8,-1
 101 300 l 1,9,-1
 101 0 l 1,10,-1
 0 0 l 1,11,-1
 0 700 l 1,12,-1
 301 700 l 1,13,-1
 301 600 l 1,4,-1
EndSplineSet
Validated: 5
EndChar

StartChar: Q
Encoding: 81 81 52
Width: 600
Flags: W
LayerCount: 2
Fore
SplineSet
0 100 m 1,0,-1
 0 600 l 1,1,-1
 100 600 l 1,2,-1
 100 100 l 1,3,-1
 0 100 l 1,0,-1
400 600 m 1,4,-1
 500 600 l 1,5,-1
 500 200 l 1,6,-1
 400 200 l 1,7,-1
 400 600 l 1,4,-1
100 600 m 1,8,-1
 100 700 l 1,9,-1
 400 700 l 1,10,-1
 400 600 l 1,11,-1
 100 600 l 1,8,-1
100 100 m 1,12,-1
 300 100 l 1,13,-1
 300 0 l 1,14,-1
 100 0 l 1,15,-1
 100 100 l 1,12,-1
300 100 m 1,16,-1
 300 200 l 1,17,-1
 400 200 l 1,18,-1
 400 100 l 1,19,-1
 300 100 l 1,16,-1
400 100 m 1,20,-1
 500 100 l 1,21,-1
 500 0 l 1,22,-1
 400 0 l 1,23,-1
 400 100 l 1,20,-1
EndSplineSet
EndChar

StartChar: R
Encoding: 82 82 53
Width: 600
Flags: W
LayerCount: 2
Fore
SplineSet
500 0 m 1,0,-1
 400 0 l 1,1,-1
 400 300 l 1,2,-1
 500 300 l 1,3,-1
 500 0 l 1,0,-1
400 400 m 1,4,-1
 400 600 l 1,5,-1
 101 600 l 1,6,-1
 101 400 l 1,7,-1
 400 400 l 1,4,-1
400 400 m 1,8,-1
 400 300 l 1,9,-1
 101 300 l 1,10,-1
 101 0 l 1,11,-1
 0 0 l 1,12,-1
 0 700 l 1,13,-1
 400 700 l 1,14,-1
 400 600 l 1,15,-1
 500 600 l 1,16,-1
 500 400 l 1,17,-1
 400 400 l 1,8,-1
EndSplineSet
Validated: 5
EndChar

StartChar: S
Encoding: 83 83 54
Width: 600
Flags: W
LayerCount: 2
Fore
SplineSet
400 0 m 1,0,-1
 100 0 l 1,1,-1
 100 100 l 1,2,-1
 400 100 l 1,3,-1
 400 0 l 1,0,-1
400 300 m 1,4,-1
 100 300 l 1,5,-1
 100 400 l 1,6,-1
 400 400 l 1,7,-1
 400 300 l 1,4,-1
400 300 m 1,8,-1
 500 300 l 1,9,-1
 500 100 l 1,10,-1
 400 100 l 1,11,-1
 400 300 l 1,8,-1
100 400 m 1,12,-1
 0 400 l 1,13,-1
 0 600 l 1,14,-1
 100 600 l 1,15,-1
 100 400 l 1,12,-1
100 600 m 1,16,-1
 100 700 l 1,17,-1
 400 700 l 1,18,-1
 400 600 l 1,19,-1
 100 600 l 1,16,-1
101 100 m 1,20,-1
 0 100 l 1,21,-1
 0 200 l 1,22,-1
 101 200 l 1,23,-1
 101 100 l 1,20,-1
400 600 m 1,24,-1
 500 600 l 1,25,-1
 500 500 l 1,26,-1
 400 500 l 1,27,-1
 400 600 l 1,24,-1
EndSplineSet
EndChar

StartChar: T
Encoding: 84 84 55
Width: 600
Flags: W
LayerCount: 2
Fore
SplineSet
501 600 m 1,0,-1
 301 600 l 1,1,-1
 301 0 l 1,2,-1
 201 0 l 1,3,-1
 201 600 l 1,4,-1
 0 600 l 1,5,-1
 0 700 l 1,6,-1
 501 700 l 1,7,-1
 501 600 l 1,0,-1
EndSplineSet
Validated: 1
EndChar

StartChar: U
Encoding: 85 85 56
Width: 600
Flags: W
LayerCount: 2
Fore
SplineSet
401 0 m 1,0,-1
 101 0 l 1,1,-1
 101 100 l 1,2,-1
 401 100 l 1,3,-1
 401 0 l 1,0,-1
101 100 m 1,4,-1
 0 100 l 1,5,-1
 0 700 l 1,6,-1
 101 700 l 1,7,-1
 101 100 l 1,4,-1
401 100 m 1,8,-1
 401 700 l 1,9,-1
 501 700 l 1,10,-1
 501 100 l 1,11,-1
 401 100 l 1,8,-1
EndSplineSet
Validated: 5
EndChar

StartChar: V
Encoding: 86 86 57
Width: 600
Flags: W
LayerCount: 2
Fore
SplineSet
299 0 m 1,0,-1
 199 0 l 1,1,-1
 199 100 l 1,2,-1
 299 100 l 1,3,-1
 299 0 l 1,0,-1
199 100 m 1,4,-1
 99 100 l 1,5,-1
 99 400 l 1,6,-1
 199 400 l 1,7,-1
 199 100 l 1,4,-1
299 100 m 1,8,-1
 299 400 l 1,9,-1
 399 400 l 1,10,-1
 399 100 l 1,11,-1
 299 100 l 1,8,-1
99 400 m 1,12,-1
 0 400 l 1,13,-1
 0 700 l 1,14,-1
 99 700 l 1,15,-1
 99 400 l 1,12,-1
399 400 m 1,16,-1
 399 700 l 1,17,-1
 499 700 l 1,18,-1
 499 400 l 1,19,-1
 399 400 l 1,16,-1
EndSplineSet
Validated: 5
EndChar

StartChar: W
Encoding: 87 87 58
Width: 600
Flags: W
LayerCount: 2
Fore
SplineSet
100 0 m 1,0,-1
 0 0 l 1,1,-1
 0 700 l 1,2,-1
 100 700 l 1,3,-1
 100 200 l 1,4,-1
 200 200 l 1,5,-1
 200 100 l 1,6,-1
 100 100 l 1,7,-1
 100 0 l 1,0,-1
500 0 m 1,8,-1
 400 0 l 1,9,-1
 400 100 l 1,10,-1
 300 100 l 1,11,-1
 300 200 l 1,12,-1
 400 200 l 1,13,-1
 400 700 l 1,14,-1
 500 700 l 1,15,-1
 500 0 l 1,8,-1
300 200 m 1,16,-1
 200 200 l 1,17,-1
 200 400 l 1,18,-1
 300 400 l 1,19,-1
 300 200 l 1,16,-1
EndSplineSet
Validated: 5
EndChar

StartChar: X
Encoding: 88 88 59
Width: 600
Flags: W
LayerCount: 2
Fore
SplineSet
99 0 m 1,0,-1
 0 0 l 1,1,-1
 0 200 l 1,2,-1
 99 200 l 1,3,-1
 99 0 l 1,0,-1
499 0 m 1,4,-1
 399 0 l 1,5,-1
 399 200 l 1,6,-1
 499 200 l 1,7,-1
 499 0 l 1,4,-1
99 200 m 1,8,-1
 99 300 l 1,9,-1
 199 300 l 1,10,-1
 199 200 l 1,11,-1
 99 200 l 1,8,-1
399 200 m 1,12,-1
 299 200 l 1,13,-1
 299 300 l 1,14,-1
 399 300 l 1,15,-1
 399 200 l 1,12,-1
299 300 m 1,16,-1
 199 300 l 1,17,-1
 199 400 l 1,18,-1
 299 400 l 1,19,-1
 299 300 l 1,16,-1
199 400 m 1,20,-1
 99 400 l 1,21,-1
 99 500 l 1,22,-1
 199 500 l 1,23,-1
 199 400 l 1,20,-1
99 500 m 1,24,-1
 0 500 l 1,25,-1
 0 700 l 1,26,-1
 99 700 l 1,27,-1
 99 500 l 1,24,-1
299 400 m 1,28,-1
 299 500 l 1,29,-1
 399 500 l 1,30,-1
 399 400 l 1,31,-1
 299 400 l 1,28,-1
399 500 m 1,32,-1
 399 700 l 1,33,-1
 499 700 l 1,34,-1
 499 500 l 1,35,-1
 399 500 l 1,32,-1
EndSplineSet
Validated: 5
EndChar

StartChar: Y
Encoding: 89 89 60
Width: 600
Flags: W
LayerCount: 2
Fore
SplineSet
299 0 m 1,0,-1
 199 0 l 1,1,-1
 199 400 l 1,2,-1
 299 400 l 1,3,-1
 299 0 l 1,0,-1
199 400 m 1,4,-1
 99 400 l 1,5,-1
 99 500 l 1,6,-1
 199 500 l 1,7,-1
 199 400 l 1,4,-1
99 500 m 1,8,-1
 0 500 l 1,9,-1
 0 700 l 1,10,-1
 99 700 l 1,11,-1
 99 500 l 1,8,-1
299 400 m 1,12,-1
 299 500 l 1,13,-1
 399 500 l 1,14,-1
 399 400 l 1,15,-1
 299 400 l 1,12,-1
399 500 m 1,16,-1
 399 700 l 1,17,-1
 499 700 l 1,18,-1
 499 500 l 1,19,-1
 399 500 l 1,16,-1
EndSplineSet
Validated: 5
EndChar

StartChar: Z
Encoding: 90 90 61
Width: 600
Flags: W
LayerCount: 2
Fore
SplineSet
499 0 m 1,0,-1
 0 0 l 1,1,-1
 0 200 l 1,2,-1
 99 200 l 1,3,-1
 99 100 l 1,4,-1
 499 100 l 1,5,-1
 499 0 l 1,0,-1
399 500 m 1,6,-1
 399 400 l 1,7,-1
 299 400 l 1,8,-1
 299 300 l 1,9,-1
 199 300 l 1,10,-1
 199 200 l 1,11,-1
 99 200 l 1,12,-1
 99 300 l 1,13,-1
 199 300 l 1,14,-1
 199 400 l 1,15,-1
 299 400 l 1,16,-1
 299 500 l 1,17,-1
 399 500 l 1,6,-1
399 500 m 1,18,-1
 399 600 l 1,19,-1
 0 600 l 1,20,-1
 0 700 l 1,21,-1
 499 700 l 1,22,-1
 499 500 l 1,23,-1
 399 500 l 1,18,-1
EndSplineSet
Validated: 5
EndChar

StartChar: bracketleft
Encoding: 91 91 62
Width: 400
Flags: W
LayerCount: 2
Fore
SplineSet
300 0 m 1,0,-1
 0 0 l 1,1,-1
 0 700 l 1,2,-1
 300 700 l 1,3,-1
 300 600 l 1,4,-1
 100 600 l 1,5,-1
 100 100 l 1,6,-1
 300 100 l 1,7,-1
 300 0 l 1,0,-1
EndSplineSet
Validated: 1
EndChar

StartChar: backslash
Encoding: 92 92 63
Width: 600
Flags: W
LayerCount: 2
Fore
SplineSet
400 0 m 1,0,-1
 500 0 l 1,1,-1
 500 100 l 1,2,-1
 400 100 l 1,3,-1
 400 0 l 1,0,-1
400 100 m 1,4,-1
 400 300 l 1,5,-1
 300 300 l 1,6,-1
 300 100 l 1,7,-1
 400 100 l 1,4,-1
300 300 m 1,8,-1
 300 400 l 1,9,-1
 200 400 l 1,10,-1
 200 300 l 1,11,-1
 300 300 l 1,8,-1
200 400 m 1,12,-1
 200 600 l 1,13,-1
 100 600 l 1,14,-1
 100 400 l 1,15,-1
 200 400 l 1,12,-1
100 600 m 1,16,-1
 100 700 l 1,17,-1
 0 700 l 1,18,-1
 0 600 l 1,19,-1
 100 600 l 1,16,-1
EndSplineSet
Validated: 5
EndChar

StartChar: bracketright
Encoding: 93 93 64
Width: 400
Flags: W
LayerCount: 2
Fore
SplineSet
0 0 m 1,0,-1
 0 100 l 1,1,-1
 200 100 l 1,2,-1
 200 600 l 1,3,-1
 0 600 l 1,4,-1
 0 700 l 1,5,-1
 300 700 l 1,6,-1
 300 0 l 1,7,-1
 0 0 l 1,0,-1
EndSplineSet
EndChar

StartChar: asciicircum
Encoding: 94 94 65
Width: 600
Flags: W
LayerCount: 2
Fore
SplineSet
500 400 m 1,0,-1
 400 400 l 1,1,-1
 400 500 l 1,2,-1
 300 500 l 1,3,-1
 300 600 l 1,4,-1
 400 600 l 1,5,-1
 400 500 l 1,6,-1
 500 500 l 1,7,-1
 500 400 l 1,0,-1
100 400 m 1,8,-1
 0 400 l 1,9,-1
 0 500 l 1,10,-1
 100 500 l 1,11,-1
 100 400 l 1,8,-1
100 500 m 1,12,-1
 100 600 l 1,13,-1
 200 600 l 1,14,-1
 200 500 l 1,15,-1
 100 500 l 1,12,-1
200 600 m 1,16,-1
 200 700 l 1,17,-1
 300 700 l 1,18,-1
 300 600 l 1,19,-1
 200 600 l 1,16,-1
EndSplineSet
Validated: 5
EndChar

StartChar: underscore
Encoding: 95 95 66
Width: 600
Flags: W
LayerCount: 2
Fore
SplineSet
500 0 m 1,0,-1
 0 0 l 1,1,-1
 0 100 l 1,2,-1
 500 100 l 1,3,-1
 500 0 l 1,0,-1
EndSplineSet
Validated: 1
EndChar

StartChar: grave
Encoding: 96 96 67
Width: 300
Flags: W
LayerCount: 2
Fore
SplineSet
100 400 m 1,0,-1
 200 400 l 1,1,-1
 200 500 l 1,2,-1
 100 500 l 1,3,-1
 100 400 l 1,0,-1
100 500 m 1,4,-1
 100 700 l 1,5,-1
 0 700 l 1,6,-1
 0 500 l 1,7,-1
 100 500 l 1,4,-1
EndSplineSet
Validated: 5
EndChar

StartChar: a
Encoding: 97 97 68
Width: 600
Flags: W
LayerCount: 2
Fore
SplineSet
400 100 m 1,0,-1
 400 200 l 1,1,-1
 100 200 l 1,2,-1
 100 100 l 1,3,-1
 400 100 l 1,0,-1
500 0 m 1,4,-1
 100 0 l 1,5,-1
 100 100 l 1,6,-1
 0 100 l 1,7,-1
 0 200 l 1,8,-1
 100 200 l 1,9,-1
 100 300 l 1,10,-1
 400 300 l 1,11,-1
 400 400 l 1,12,-1
 500 400 l 1,13,-1
 500 0 l 1,4,-1
400 400 m 1,14,-1
 100 400 l 1,15,-1
 100 500 l 1,16,-1
 400 500 l 1,17,-1
 400 400 l 1,14,-1
EndSplineSet
Validated: 5
EndChar

StartChar: b
Encoding: 98 98 69
Width: 600
Flags: W
LayerCount: 2
Fore
SplineSet
400 100 m 1,0,-1
 500 100 l 1,1,-1
 500 400 l 1,2,-1
 400 400 l 1,3,-1
 400 100 l 1,0,-1
400 100 m 1,4,-1
 100 100 l 1,5,-1
 100 300 l 1,6,-1
 200 300 l 1,7,-1
 200 400 l 1,8,-1
 400 400 l 1,9,-1
 400 500 l 1,10,-1
 200 500 l 1,11,-1
 200 400 l 1,12,-1
 100 400 l 1,13,-1
 100 700 l 1,14,-1
 0 700 l 1,15,-1
 0 0 l 1,16,-1
 400 0 l 1,17,-1
 400 100 l 1,4,-1
EndSplineSet
Validated: 5
EndChar

StartChar: c
Encoding: 99 99 70
Width: 600
Flags: W
LayerCount: 2
Fore
SplineSet
100 400 m 1,0,-1
 100 100 l 1,1,-1
 400 100 l 1,2,-1
 400 0 l 1,3,-1
 100 0 l 1,4,-1
 100 100 l 1,5,-1
 0 100 l 1,6,-1
 0 400 l 1,7,-1
 100 400 l 1,0,-1
100 400 m 1,8,-1
 100 500 l 1,9,-1
 400 500 l 1,10,-1
 400 400 l 1,11,-1
 100 400 l 1,8,-1
400 400 m 1,12,-1
 500 400 l 1,13,-1
 500 300 l 1,14,-1
 400 300 l 1,15,-1
 400 400 l 1,12,-1
400 100 m 1,16,-1
 400 200 l 1,17,-1
 500 200 l 1,18,-1
 500 100 l 1,19,-1
 400 100 l 1,16,-1
EndSplineSet
Validated: 5
EndChar

StartChar: d
Encoding: 100 100 71
Width: 600
Flags: W
LayerCount: 2
Fore
SplineSet
100 100 m 1,0,-1
 0 100 l 1,1,-1
 0 400 l 1,2,-1
 100 400 l 1,3,-1
 100 100 l 1,0,-1
100 100 m 1,4,-1
 400 100 l 1,5,-1
 400 300 l 1,6,-1
 300 300 l 1,7,-1
 300 400 l 1,8,-1
 100 400 l 1,9,-1
 100 500 l 1,10,-1
 300 500 l 1,11,-1
 300 400 l 1,12,-1
 400 400 l 1,13,-1
 400 700 l 1,14,-1
 500 700 l 1,15,-1
 500 0 l 1,16,-1
 100 0 l 1,17,-1
 100 100 l 1,4,-1
EndSplineSet
Validated: 5
EndChar

StartChar: e
Encoding: 101 101 72
Width: 600
Flags: W
LayerCount: 2
Fore
SplineSet
500 400 m 1,0,-1
 500 200 l 1,1,-1
 100 200 l 1,2,-1
 100 100 l 1,3,-1
 0 100 l 1,4,-1
 0 400 l 1,5,-1
 100 400 l 1,6,-1
 100 300 l 1,7,-1
 400 300 l 1,8,-1
 400 400 l 1,9,-1
 100 400 l 1,10,-1
 100 500 l 1,11,-1
 400 500 l 1,12,-1
 400 400 l 1,13,-1
 500 400 l 1,0,-1
100 100 m 1,14,-1
 500 100 l 1,15,-1
 500 0 l 1,16,-1
 100 0 l 1,17,-1
 100 100 l 1,14,-1
EndSplineSet
Validated: 5
EndChar

StartChar: f
Encoding: 102 102 73
Width: 500
Flags: W
LayerCount: 2
Fore
SplineSet
200 600 m 1,0,-1
 200 700 l 1,1,-1
 400 700 l 1,2,-1
 400 600 l 1,3,-1
 200 600 l 1,0,-1
200 600 m 1,4,-1
 200 500 l 1,5,-1
 399 500 l 1,6,-1
 399 400 l 1,7,-1
 200 400 l 1,8,-1
 200 0 l 1,9,-1
 100 0 l 1,10,-1
 100 400 l 1,11,-1
 0 400 l 1,12,-1
 0 500 l 1,13,-1
 100 500 l 1,14,-1
 100 600 l 1,15,-1
 200 600 l 1,4,-1
EndSplineSet
Validated: 5
EndChar

StartChar: g
Encoding: 103 103 74
Width: 600
Flags: W
LayerCount: 2
Fore
SplineSet
100 200 m 1,0,-1
 400 200 l 1,1,-1
 400 400 l 1,2,-1
 100 400 l 1,3,-1
 100 200 l 1,0,-1
100 201 m 1,4,-1
 0 201 l 1,5,-1
 0 400 l 1,6,-1
 100 400 l 1,7,-1
 100 500 l 1,8,-1
 500 500 l 1,9,-1
 500 0 l 1,10,-1
 400 0 l 1,11,-1
 400 100 l 1,12,-1
 100 100 l 1,13,-1
 100 201 l 1,4,-1
400 0 m 1,14,-1
 400 -100 l 1,15,-1
 0 -100 l 1,16,-1
 0 0 l 1,17,-1
 400 0 l 1,14,-1
EndSplineSet
EndChar

StartChar: h
Encoding: 104 104 75
Width: 600
Flags: W
LayerCount: 2
Fore
SplineSet
0 700 m 1,0,-1
 100 700 l 1,1,-1
 100 400 l 1,2,-1
 200 400 l 1,3,-1
 200 500 l 1,4,-1
 400 500 l 1,5,-1
 400 400 l 1,6,-1
 500 400 l 1,7,-1
 500 0 l 1,8,-1
 400 0 l 1,9,-1
 400 400 l 1,10,-1
 200 400 l 1,11,-1
 200 300 l 1,12,-1
 100 300 l 1,13,-1
 100 0 l 1,14,-1
 0 0 l 1,15,-1
 0 700 l 1,0,-1
EndSplineSet
Validated: 5
EndChar

StartChar: i
Encoding: 105 105 76
Width: 200
Flags: W
LayerCount: 2
Fore
SplineSet
100 0 m 1,0,-1
 0 0 l 1,1,-1
 0 500 l 1,2,-1
 100 500 l 1,3,-1
 100 0 l 1,0,-1
100 600 m 1,4,-1
 0 600 l 1,5,-1
 0 700 l 1,6,-1
 100 700 l 1,7,-1
 100 600 l 1,4,-1
EndSplineSet
Validated: 1
EndChar

StartChar: j
Encoding: 106 106 77
Width: 600
Flags: W
LayerCount: 2
Fore
SplineSet
400 -100 m 1,0,-1
 100 -100 l 1,1,-1
 100 0 l 1,2,-1
 400 0 l 1,3,-1
 400 -100 l 1,0,-1
500 600 m 1,4,-1
 400 600 l 1,5,-1
 400 700 l 1,6,-1
 500 700 l 1,7,-1
 500 600 l 1,4,-1
400 0 m 1,8,-1
 400 500 l 1,9,-1
 500 500 l 1,10,-1
 500 0 l 1,11,-1
 400 0 l 1,8,-1
100 0 m 1,12,-1
 0 0 l 1,13,-1
 0 200 l 1,14,-1
 100 200 l 1,15,-1
 100 0 l 1,12,-1
EndSplineSet
Validated: 5
EndChar

StartChar: k
Encoding: 107 107 78
Width: 500
Flags: W
LayerCount: 2
Fore
SplineSet
400 0 m 1,0,-1
 300 0 l 1,1,-1
 300 100 l 1,2,-1
 400 100 l 1,3,-1
 400 0 l 1,0,-1
300 400 m 1,4,-1
 300 300 l 1,5,-1
 200 300 l 1,6,-1
 200 200 l 1,7,-1
 300 200 l 1,8,-1
 300 100 l 1,9,-1
 200 100 l 1,10,-1
 200 200 l 1,11,-1
 100 200 l 1,12,-1
 100 0 l 1,13,-1
 0 0 l 1,14,-1
 0 700 l 1,15,-1
 100 700 l 1,16,-1
 100 300 l 1,17,-1
 200 300 l 1,18,-1
 200 400 l 1,19,-1
 300 400 l 1,4,-1
300 400 m 1,20,-1
 300 500 l 1,21,-1
 400 500 l 1,22,-1
 400 400 l 1,23,-1
 300 400 l 1,20,-1
EndSplineSet
Validated: 5
EndChar

StartChar: l
Encoding: 108 108 79
Width: 300
Flags: W
LayerCount: 2
Fore
SplineSet
100 100 m 1,0,-1
 0 100 l 1,1,-1
 0 700 l 1,2,-1
 100 700 l 1,3,-1
 100 100 l 1,0,-1
100 100 m 1,4,-1
 200 100 l 1,5,-1
 200 0 l 1,6,-1
 100 0 l 1,7,-1
 100 100 l 1,4,-1
EndSplineSet
Validated: 5
EndChar

StartChar: m
Encoding: 109 109 80
Width: 600
Flags: W
LayerCount: 2
Fore
SplineSet
100 400 m 1,0,-1
 100 0 l 1,1,-1
 0 0 l 1,2,-1
 0 500 l 1,3,-1
 200 500 l 1,4,-1
 200 400 l 1,5,-1
 100 400 l 1,0,-1
200 400 m 1,6,-1
 300 400 l 1,7,-1
 300 200 l 1,8,-1
 200 200 l 1,9,-1
 200 400 l 1,6,-1
300 400 m 1,10,-1
 300 500 l 1,11,-1
 400 500 l 1,12,-1
 400 400 l 1,13,-1
 300 400 l 1,10,-1
400 400 m 1,14,-1
 500 400 l 1,15,-1
 500 0 l 1,16,-1
 400 0 l 1,17,-1
 400 400 l 1,14,-1
EndSplineSet
Validated: 5
EndChar

StartChar: n
Encoding: 110 110 81
Width: 600
Flags: W
LayerCount: 2
Fore
SplineSet
500 0 m 1,0,-1
 400 0 l 1,1,-1
 400 400 l 1,2,-1
 500 400 l 1,3,-1
 500 0 l 1,0,-1
400 400 m 1,4,-1
 100 400 l 1,5,-1
 100 0 l 1,6,-1
 0 0 l 1,7,-1
 0 500 l 1,8,-1
 400 500 l 1,9,-1
 400 400 l 1,4,-1
EndSplineSet
Validated: 5
EndChar

StartChar: o
Encoding: 111 111 82
Width: 601
Flags: W
LayerCount: 2
Fore
SplineSet
400 0 m 1,0,-1
 100 0 l 1,1,-1
 100 100 l 1,2,-1
 400 100 l 1,3,-1
 400 0 l 1,0,-1
100 100 m 1,4,-1
 0 100 l 1,5,-1
 0 400 l 1,6,-1
 100 400 l 1,7,-1
 100 100 l 1,4,-1
400 100 m 1,8,-1
 400 400 l 1,9,-1
 500 400 l 1,10,-1
 500 100 l 1,11,-1
 400 100 l 1,8,-1
400 400 m 1,12,-1
 100 400 l 1,13,-1
 100 500 l 1,14,-1
 400 500 l 1,15,-1
 400 400 l 1,12,-1
EndSplineSet
Validated: 5
EndChar

StartChar: p
Encoding: 112 112 83
Width: 600
Flags: W
LayerCount: 2
Fore
SplineSet
400 200 m 1,0,-1
 500 200 l 1,1,-1
 500 400 l 1,2,-1
 400 400 l 1,3,-1
 400 200 l 1,0,-1
400 200 m 1,4,-1
 100 200 l 1,5,-1
 100 300 l 1,6,-1
 200 300 l 1,7,-1
 200 400 l 1,8,-1
 100 400 l 1,9,-1
 100 500 l 1,10,-1
 0 500 l 1,11,-1
 0 -200 l 1,12,-1
 100 -200 l 1,13,-1
 100 100 l 1,14,-1
 400 100 l 1,15,-1
 400 200 l 1,4,-1
200 400 m 1,16,-1
 400 400 l 1,17,-1
 400 500 l 1,18,-1
 200 500 l 1,19,-1
 200 400 l 1,16,-1
EndSplineSet
Validated: 5
EndChar

StartChar: q
Encoding: 113 113 84
Width: 600
Flags: W
LayerCount: 2
Fore
SplineSet
100 200 m 1,0,-1
 0 200 l 1,1,-1
 0 400 l 1,2,-1
 100 400 l 1,3,-1
 100 200 l 1,0,-1
100 200 m 1,4,-1
 400 200 l 1,5,-1
 400 300 l 1,6,-1
 300 300 l 1,7,-1
 300 400 l 1,8,-1
 400 400 l 1,9,-1
 400 500 l 1,10,-1
 500 500 l 1,11,-1
 500 -200 l 1,12,-1
 400 -200 l 1,13,-1
 400 100 l 1,14,-1
 100 100 l 1,15,-1
 100 200 l 1,4,-1
300 400 m 1,16,-1
 100 400 l 1,17,-1
 100 500 l 1,18,-1
 300 500 l 1,19,-1
 300 400 l 1,16,-1
EndSplineSet
Validated: 5
EndChar

StartChar: r
Encoding: 114 114 85
Width: 600
Flags: W
LayerCount: 2
Fore
SplineSet
200 400 m 1,0,-1
 200 500 l 1,1,-1
 400 500 l 1,2,-1
 400 400 l 1,3,-1
 200 400 l 1,0,-1
200 400 m 1,4,-1
 200 300 l 1,5,-1
 100 300 l 1,6,-1
 100 0 l 1,7,-1
 0 0 l 1,8,-1
 0 500 l 1,9,-1
 100 500 l 1,10,-1
 100 400 l 1,11,-1
 200 400 l 1,4,-1
400 400 m 1,12,-1
 500 400 l 1,13,-1
 500 300 l 1,14,-1
 400 300 l 1,15,-1
 400 400 l 1,12,-1
EndSplineSet
Validated: 5
EndChar

StartChar: s
Encoding: 115 115 86
Width: 600
Flags: W
LayerCount: 2
Fore
SplineSet
400 0 m 1,0,-1
 0 0 l 1,1,-1
 0 100 l 1,2,-1
 400 100 l 1,3,-1
 400 0 l 1,0,-1
100 300 m 1,4,-1
 0 300 l 1,5,-1
 0 400 l 1,6,-1
 100 400 l 1,7,-1
 100 300 l 1,4,-1
100 300 m 1,8,-1
 400 300 l 1,9,-1
 400 200 l 1,10,-1
 100 200 l 1,11,-1
 100 300 l 1,8,-1
400 200 m 1,12,-1
 500 200 l 1,13,-1
 500 100 l 1,14,-1
 400 100 l 1,15,-1
 400 200 l 1,12,-1
100 400 m 1,16,-1
 100 500 l 1,17,-1
 500 500 l 1,18,-1
 500 400 l 1,19,-1
 100 400 l 1,16,-1
EndSplineSet
Validated: 5
EndChar

StartChar: t
Encoding: 116 116 87
Width: 400
Flags: W
LayerCount: 2
Fore
SplineSet
300 0 m 1,0,-1
 200 0 l 1,1,-1
 200 100 l 1,2,-1
 300 100 l 1,3,-1
 300 0 l 1,0,-1
200 100 m 1,4,-1
 100 100 l 1,5,-1
 100 400 l 1,6,-1
 0 400 l 1,7,-1
 0 500 l 1,8,-1
 100 500 l 1,9,-1
 100 700 l 1,10,-1
 200 700 l 1,11,-1
 200 500 l 1,12,-1
 300 500 l 1,13,-1
 300 400 l 1,14,-1
 200 400 l 1,15,-1
 200 100 l 1,4,-1
EndSplineSet
Validated: 5
EndChar

StartChar: u
Encoding: 117 117 88
Width: 600
Flags: W
LayerCount: 2
Fore
SplineSet
500 500 m 1,0,-1
 500 0 l 1,1,-1
 100 0 l 1,2,-1
 100 100 l 1,3,-1
 400 100 l 1,4,-1
 400 500 l 1,5,-1
 500 500 l 1,0,-1
100 100 m 1,6,-1
 0 100 l 1,7,-1
 0 500 l 1,8,-1
 100 500 l 1,9,-1
 100 100 l 1,6,-1
EndSplineSet
Validated: 5
EndChar

StartChar: v
Encoding: 118 118 89
Width: 600
Flags: W
LayerCount: 2
Fore
SplineSet
300 0 m 1,0,-1
 200 0 l 1,1,-1
 200 100 l 1,2,-1
 300 100 l 1,3,-1
 300 0 l 1,0,-1
200 100 m 1,4,-1
 100 100 l 1,5,-1
 100 200 l 1,6,-1
 200 200 l 1,7,-1
 200 100 l 1,4,-1
100 200 m 1,8,-1
 0 200 l 1,9,-1
 0 500 l 1,10,-1
 100 500 l 1,11,-1
 100 200 l 1,8,-1
300 100 m 1,12,-1
 300 200 l 1,13,-1
 400 200 l 1,14,-1
 400 500 l 1,15,-1
 500 500 l 1,16,-1
 500 200 l 1,17,-1
 400 200 l 1,18,-1
 400 100 l 1,19,-1
 300 100 l 1,12,-1
EndSplineSet
Validated: 5
EndChar

StartChar: w
Encoding: 119 119 90
Width: 600
Flags: W
LayerCount: 2
Fore
SplineSet
100 100 m 1,0,-1
 0 100 l 1,1,-1
 0 500 l 1,2,-1
 100 500 l 1,3,-1
 100 100 l 1,0,-1
100 100 m 1,4,-1
 200 100 l 1,5,-1
 200 300 l 1,6,-1
 300 300 l 1,7,-1
 300 100 l 1,8,-1
 400 100 l 1,9,-1
 400 500 l 1,10,-1
 500 500 l 1,11,-1
 500 0 l 1,12,-1
 100 0 l 1,13,-1
 100 100 l 1,4,-1
EndSplineSet
Validated: 5
EndChar

StartChar: x
Encoding: 120 120 91
Width: 600
Flags: W
LayerCount: 2
Fore
SplineSet
100 0 m 1,0,-1
 0 0 l 1,1,-1
 0 100 l 1,2,-1
 100 100 l 1,3,-1
 100 0 l 1,0,-1
500 0 m 1,4,-1
 400 0 l 1,5,-1
 400 100 l 1,6,-1
 500 100 l 1,7,-1
 500 0 l 1,4,-1
100 100 m 1,8,-1
 100 200 l 1,9,-1
 200 200 l 1,10,-1
 200 100 l 1,11,-1
 100 100 l 1,8,-1
100 400 m 1,12,-1
 200 400 l 1,13,-1
 200 300 l 1,14,-1
 100 300 l 1,15,-1
 100 400 l 1,12,-1
100 400 m 1,16,-1
 0 400 l 1,17,-1
 0 500 l 1,18,-1
 100 500 l 1,19,-1
 100 400 l 1,16,-1
400 100 m 1,20,-1
 300 100 l 1,21,-1
 300 200 l 1,22,-1
 400 200 l 1,23,-1
 400 100 l 1,20,-1
200 300 m 1,24,-1
 300 300 l 1,25,-1
 300 200 l 1,26,-1
 200 200 l 1,27,-1
 200 300 l 1,24,-1
300 300 m 1,28,-1
 300 400 l 1,29,-1
 400 400 l 1,30,-1
 400 300 l 1,31,-1
 300 300 l 1,28,-1
400 400 m 1,32,-1
 400 500 l 1,33,-1
 500 500 l 1,34,-1
 500 400 l 1,35,-1
 400 400 l 1,32,-1
EndSplineSet
Validated: 5
EndChar

StartChar: y
Encoding: 121 121 92
Width: 600
Flags: W
LayerCount: 2
Fore
SplineSet
100 200 m 1,0,-1
 400 200 l 1,1,-1
 400 500 l 1,2,-1
 500 500 l 1,3,-1
 500 0 l 1,4,-1
 400 0 l 1,5,-1
 400 100 l 1,6,-1
 100 100 l 1,7,-1
 100 200 l 1,0,-1
100 201 m 1,8,-1
 0 201 l 1,9,-1
 0 500 l 1,10,-1
 100 500 l 1,11,-1
 100 201 l 1,8,-1
400 0 m 1,12,-1
 400 -100 l 1,13,-1
 0 -100 l 1,14,-1
 0 0 l 1,15,-1
 400 0 l 1,12,-1
EndSplineSet
EndChar

StartChar: z
Encoding: 122 122 93
Width: 600
Flags: W
LayerCount: 2
Fore
SplineSet
0 500 m 1,0,-1
 500 500 l 1,1,-1
 500 400 l 1,2,-1
 400 400 l 1,3,-1
 400 300 l 1,4,-1
 300 300 l 1,5,-1
 300 200 l 1,6,-1
 200 200 l 1,7,-1
 200 100 l 1,8,-1
 500 100 l 1,9,-1
 500 0 l 1,10,-1
 0 0 l 1,11,-1
 0 100 l 1,12,-1
 100 100 l 1,13,-1
 100 200 l 1,14,-1
 200 200 l 1,15,-1
 200 300 l 1,16,-1
 300 300 l 1,17,-1
 300 400 l 1,18,-1
 0 400 l 1,19,-1
 0 500 l 1,0,-1
EndSplineSet
Validated: 5
EndChar

StartChar: braceleft
Encoding: 123 123 94
Width: 500
Flags: W
LayerCount: 2
Fore
SplineSet
400 700 m 1,0,-1
 400 600 l 1,1,-1
 200 600 l 1,2,-1
 200 400 l 1,3,-1
 100 400 l 1,4,-1
 100 300 l 1,5,-1
 0 300 l 1,6,-1
 0 400 l 1,7,-1
 100 400 l 1,8,-1
 100 600 l 1,9,-1
 200 600 l 1,10,-1
 200 700 l 1,11,-1
 400 700 l 1,0,-1
400 0 m 1,12,-1
 200 0 l 1,13,-1
 200 100 l 1,14,-1
 100 100 l 1,15,-1
 100 300 l 1,16,-1
 200 300 l 1,17,-1
 200 100 l 1,18,-1
 400 100 l 1,19,-1
 400 0 l 1,12,-1
EndSplineSet
Validated: 5
EndChar

StartChar: bar
Encoding: 124 124 95
Width: 200
Flags: W
LayerCount: 2
Fore
SplineSet
100 0 m 1,0,-1
 0 0 l 1,1,-1
 0 300 l 1,2,-1
 100 300 l 1,3,-1
 100 0 l 1,0,-1
100 399 m 1,4,-1
 0 399 l 1,5,-1
 0 700 l 1,6,-1
 100 700 l 1,7,-1
 100 399 l 1,4,-1
EndSplineSet
Validated: 1
EndChar

StartChar: braceright
Encoding: 125 125 96
Width: 500
Flags: W
LayerCount: 2
Fore
SplineSet
0 700 m 1,0,-1
 0 600 l 1,1,-1
 200 600 l 1,2,-1
 200 400 l 1,3,-1
 300 400 l 1,4,-1
 300 300 l 1,5,-1
 400 300 l 1,6,-1
 400 400 l 1,7,-1
 300 400 l 1,8,-1
 300 600 l 1,9,-1
 200 600 l 1,10,-1
 200 700 l 1,11,-1
 0 700 l 1,0,-1
0 0 m 1,12,-1
 200 0 l 1,13,-1
 200 100 l 1,14,-1
 300 100 l 1,15,-1
 300 300 l 1,16,-1
 200 300 l 1,17,-1
 200 100 l 1,18,-1
 0 100 l 1,19,-1
 0 0 l 1,12,-1
EndSplineSet
Validated: 5
EndChar

StartChar: asciitilde
Encoding: 126 126 97
Width: 700
Flags: W
LayerCount: 2
Fore
SplineSet
100 500 m 1,0,-1
 0 500 l 1,1,-1
 0 600 l 1,2,-1
 100 600 l 1,3,-1
 100 500 l 1,0,-1
500 500 m 1,4,-1
 300 500 l 1,5,-1
 300 600 l 1,6,-1
 100 600 l 1,7,-1
 100 700 l 1,8,-1
 300 700 l 1,9,-1
 300 600 l 1,10,-1
 500 600 l 1,11,-1
 500 500 l 1,4,-1
500 600 m 1,12,-1
 500 700 l 1,13,-1
 600 700 l 1,14,-1
 600 600 l 1,15,-1
 500 600 l 1,12,-1
EndSplineSet
EndChar

StartChar: bullet
Encoding: 8226 8226 98
Width: 500
Flags: W
LayerCount: 2
Fore
SplineSet
400 200 m 1,0,-1
 300 200 l 1,1,-1
 300 100 l 1,2,-1
 100 100 l 1,3,-1
 100 200 l 1,4,-1
 0 200 l 1,5,-1
 0 400 l 1,6,-1
 100 400 l 1,7,-1
 100 500 l 1,8,-1
 300 500 l 1,9,-1
 300 400 l 1,10,-1
 400 400 l 1,11,-1
 400 200 l 1,0,-1
EndSplineSet
Validated: 1
EndChar

StartChar: acute
Encoding: 180 180 99
Width: 300
Flags: W
LayerCount: 2
Fore
SplineSet
100 500 m 1,0,-1
 0 500 l 1,1,-1
 0 600 l 1,2,-1
 100 600 l 1,3,-1
 100 500 l 1,0,-1
100 600 m 1,4,-1
 100 700 l 1,5,-1
 200 700 l 1,6,-1
 200 600 l 1,7,-1
 100 600 l 1,4,-1
EndSplineSet
Validated: 5
EndChar

StartChar: ordfeminine
Encoding: 170 170 101
Width: 400
Flags: W
LayerCount: 2
Fore
SplineSet
200 500 m 1,0,-1
 200 600 l 1,1,-1
 100 600 l 1,2,-1
 100 500 l 1,3,-1
 200 500 l 1,0,-1
300 400 m 1,4,-1
 100 400 l 1,5,-1
 100 500 l 1,6,-1
 0 500 l 1,7,-1
 0 600 l 1,8,-1
 100 600 l 1,9,-1
 100 700 l 1,10,-1
 300 700 l 1,11,-1
 300 400 l 1,4,-1
EndSplineSet
Validated: 5
EndChar

StartChar: ordmasculine
Encoding: 186 186 102
Width: 400
Flags: W
LayerCount: 2
Fore
SplineSet
200 400 m 1,0,-1
 100 400 l 1,1,-1
 100 500 l 1,2,-1
 0 500 l 1,3,-1
 0 600 l 1,4,-1
 100 600 l 1,5,-1
 100 500 l 1,6,-1
 200 500 l 1,7,-1
 200 400 l 1,0,-1
200 500 m 1,8,-1
 200 600 l 1,9,-1
 300 600 l 1,10,-1
 300 500 l 1,11,-1
 200 500 l 1,8,-1
200 600 m 1,12,-1
 100 600 l 1,13,-1
 100 700 l 1,14,-1
 200 700 l 1,15,-1
 200 600 l 1,12,-1
EndSplineSet
Validated: 5
EndChar

StartChar: questiondown
Encoding: 191 191 103
Width: 600
Flags: W
LayerCount: 2
Fore
SplineSet
200 700 m 1,0,-1
 300 700 l 1,1,-1
 300 600 l 1,2,-1
 200 600 l 1,3,-1
 200 700 l 1,0,-1
200 500 m 1,4,-1
 300 500 l 1,5,-1
 300 400 l 1,6,-1
 200 400 l 1,7,-1
 200 500 l 1,4,-1
400 200 m 1,8,-1
 500 200 l 1,9,-1
 500 100 l 1,10,-1
 400 100 l 1,11,-1
 400 200 l 1,8,-1
200 400 m 1,12,-1
 200 300 l 1,13,-1
 100 300 l 1,14,-1
 100 400 l 1,15,-1
 200 400 l 1,12,-1
100 300 m 1,16,-1
 100 100 l 1,17,-1
 0 100 l 1,18,-1
 0 300 l 1,19,-1
 100 300 l 1,16,-1
100 100 m 1,20,-1
 400 100 l 1,21,-1
 400 0 l 1,22,-1
 100 0 l 1,23,-1
 100 100 l 1,20,-1
EndSplineSet
Validated: 5
EndChar

StartChar: exclamdown
Encoding: 161 161 104
Width: 200
Flags: W
LayerCount: 2
Fore
SplineSet
100 -100 m 1,0,-1
 0 -100 l 1,1,-1
 0 500 l 1,2,-1
 100 500 l 1,3,-1
 100 -100 l 1,0,-1
100 600 m 1,4,-1
 0 600 l 1,5,-1
 0 700 l 1,6,-1
 100 700 l 1,7,-1
 100 600 l 1,4,-1
EndSplineSet
Validated: 1
EndChar

StartChar: guillemotleft
Encoding: 171 171 105
Width: 900
Flags: W
LayerCount: 2
Fore
SplineSet
401 0 m 1,0,-1
 301 0 l 1,1,-1
 301 100 l 1,2,-1
 201 100 l 1,3,-1
 201 186 l 1,4,-1
 301 186 l 1,5,-1
 301 100 l 1,6,-1
 401 100 l 1,7,-1
 401 0 l 1,0,-1
201 200 m 1,8,-1
 101 200 l 1,9,-1
 101 300 l 1,10,-1
 0 300 l 1,11,-1
 0 400 l 1,12,-1
 101 400 l 1,13,-1
 101 300 l 1,14,-1
 201 300 l 1,15,-1
 201 200 l 1,8,-1
805 0 m 1,16,-1
 705 0 l 1,17,-1
 705 100 l 1,18,-1
 605 100 l 1,19,-1
 605 186 l 1,20,-1
 705 186 l 1,21,-1
 705 100 l 1,22,-1
 805 100 l 1,23,-1
 805 0 l 1,16,-1
605 200 m 1,24,-1
 505 200 l 1,25,-1
 505 300 l 1,26,-1
 405 300 l 1,27,-1
 405 400 l 1,28,-1
 505 400 l 1,29,-1
 505 300 l 1,30,-1
 605 300 l 1,31,-1
 605 200 l 1,24,-1
101 400 m 1,32,-1
 101 500 l 1,33,-1
 201 500 l 1,34,-1
 201 400 l 1,35,-1
 101 400 l 1,32,-1
201 500 m 1,36,-1
 201 600 l 1,37,-1
 301 600 l 1,38,-1
 301 500 l 1,39,-1
 201 500 l 1,36,-1
301 600 m 1,40,-1
 301 700 l 1,41,-1
 401 700 l 1,42,-1
 401 600 l 1,43,-1
 301 600 l 1,40,-1
505 400 m 1,44,-1
 505 500 l 1,45,-1
 605 500 l 1,46,-1
 605 400 l 1,47,-1
 505 400 l 1,44,-1
605 500 m 1,48,-1
 605 600 l 1,49,-1
 705 600 l 1,50,-1
 705 500 l 1,51,-1
 605 500 l 1,48,-1
705 600 m 1,52,-1
 705 700 l 1,53,-1
 805 700 l 1,54,-1
 805 600 l 1,55,-1
 705 600 l 1,52,-1
EndSplineSet
Validated: 5
EndChar

StartChar: guillemotright
Encoding: 187 187 106
Width: 900
Flags: W
LayerCount: 2
Fore
SplineSet
100 0 m 1,0,-1
 0 0 l 1,1,-1
 0 100 l 1,2,-1
 100 100 l 1,3,-1
 100 0 l 1,0,-1
504 0 m 1,4,-1
 404 0 l 1,5,-1
 404 100 l 1,6,-1
 504 100 l 1,7,-1
 504 0 l 1,4,-1
200 514 m 1,8,-1
 100 514 l 1,9,-1
 100 600 l 1,10,-1
 0 600 l 1,11,-1
 0 700 l 1,12,-1
 100 700 l 1,13,-1
 100 600 l 1,14,-1
 200 600 l 1,15,-1
 200 514 l 1,8,-1
604 514 m 1,16,-1
 504 514 l 1,17,-1
 504 600 l 1,18,-1
 404 600 l 1,19,-1
 404 700 l 1,20,-1
 504 700 l 1,21,-1
 504 600 l 1,22,-1
 604 600 l 1,23,-1
 604 514 l 1,16,-1
100 100 m 1,24,-1
 100 200 l 1,25,-1
 200 200 l 1,26,-1
 200 100 l 1,27,-1
 100 100 l 1,24,-1
200 200 m 1,28,-1
 200 300 l 1,29,-1
 300 300 l 1,30,-1
 300 200 l 1,31,-1
 200 200 l 1,28,-1
300 400 m 1,32,-1
 200 400 l 1,33,-1
 200 500 l 1,34,-1
 300 500 l 1,35,-1
 300 400 l 1,32,-1
300 400 m 1,36,-1
 400 400 l 1,37,-1
 400 300 l 1,38,-1
 300 300 l 1,39,-1
 300 400 l 1,36,-1
504 100 m 1,40,-1
 504 200 l 1,41,-1
 604 200 l 1,42,-1
 604 100 l 1,43,-1
 504 100 l 1,40,-1
604 200 m 1,44,-1
 604 300 l 1,45,-1
 704 300 l 1,46,-1
 704 200 l 1,47,-1
 604 200 l 1,44,-1
704 400 m 1,48,-1
 604 400 l 1,49,-1
 604 500 l 1,50,-1
 704 500 l 1,51,-1
 704 400 l 1,48,-1
704 400 m 1,52,-1
 804 400 l 1,53,-1
 804 300 l 1,54,-1
 704 300 l 1,55,-1
 704 400 l 1,52,-1
EndSplineSet
Validated: 5
EndChar

StartChar: ellipsis
Encoding: 8230 8230 107
Width: 600
Flags: W
LayerCount: 2
Fore
SplineSet
100 0 m 1,0,-1
 0 0 l 1,1,-1
 0 100 l 1,2,-1
 100 100 l 1,3,-1
 100 0 l 1,0,-1
300 0 m 1,4,-1
 200 0 l 1,5,-1
 200 100 l 1,6,-1
 300 100 l 1,7,-1
 300 0 l 1,4,-1
500 0 m 1,8,-1
 400 0 l 1,9,-1
 400 100 l 1,10,-1
 500 100 l 1,11,-1
 500 0 l 1,8,-1
EndSplineSet
Validated: 1
EndChar

StartChar: guilsinglleft
Encoding: 8249 8249 108
Width: 900
Flags: W
LayerCount: 2
Fore
SplineSet
500 200 m 1,0,-1
 300 200 l 1,1,-1
 300 300 l 1,2,-1
 200 300 l 1,3,-1
 200 400 l 1,4,-1
 300 400 l 1,5,-1
 300 500 l 1,6,-1
 500 500 l 1,7,-1
 500 200 l 1,0,-1
600 100 m 1,8,-1
 600 600 l 1,9,-1
 100 600 l 1,10,-1
 100 100 l 1,11,-1
 600 100 l 1,8,-1
700 0 m 1,12,-1
 0 0 l 1,13,-1
 0 700 l 1,14,-1
 700 700 l 1,15,-1
 700 0 l 1,12,-1
EndSplineSet
Validated: 1
EndChar

StartChar: guilsinglright
Encoding: 8250 8250 109
Width: 900
Flags: W
LayerCount: 2
Fore
SplineSet
500 300 m 1,0,-1
 400 300 l 1,1,-1
 400 200 l 1,2,-1
 200 200 l 1,3,-1
 200 500 l 1,4,-1
 400 500 l 1,5,-1
 400 400 l 1,6,-1
 500 400 l 1,7,-1
 500 300 l 1,0,-1
600 100 m 1,8,-1
 600 600 l 1,9,-1
 100 600 l 1,10,-1
 100 100 l 1,11,-1
 600 100 l 1,8,-1
700 0 m 1,12,-1
 0 0 l 1,13,-1
 0 700 l 1,14,-1
 700 700 l 1,15,-1
 700 0 l 1,12,-1
EndSplineSet
Validated: 1
EndChar

StartChar: fi
Encoding: 61441 61441 110
Width: 500
Flags: W
LayerCount: 2
Fore
SplineSet
400 0 m 1,0,-1
 300 0 l 1,1,-1
 300 100 l 1,2,-1
 200 100 l 1,3,-1
 200 200 l 1,4,-1
 100 200 l 1,5,-1
 100 300 l 1,6,-1
 0 300 l 1,7,-1
 0 400 l 1,8,-1
 100 400 l 1,9,-1
 100 500 l 1,10,-1
 200 500 l 1,11,-1
 200 600 l 1,12,-1
 300 600 l 1,13,-1
 300 700 l 1,14,-1
 400 700 l 1,15,-1
 400 0 l 1,0,-1
EndSplineSet
Validated: 1
EndChar

StartChar: fl
Encoding: 61442 61442 111
Width: 500
Flags: W
LayerCount: 2
Fore
SplineSet
400 300 m 1,0,-1
 300 300 l 1,1,-1
 300 200 l 1,2,-1
 200 200 l 1,3,-1
 200 100 l 1,4,-1
 100 100 l 1,5,-1
 100 0 l 1,6,-1
 0 0 l 1,7,-1
 0 700 l 1,8,-1
 100 700 l 1,9,-1
 100 600 l 1,10,-1
 200 600 l 1,11,-1
 200 500 l 1,12,-1
 300 500 l 1,13,-1
 300 400 l 1,14,-1
 400 400 l 1,15,-1
 400 300 l 1,0,-1
EndSplineSet
Validated: 1
EndChar

StartChar: periodcentered
Encoding: 183 183 112
AltUni2: 002219.ffffffff.0
Width: 400
Flags: W
LayerCount: 2
Fore
SplineSet
299 300 m 1,0,-1
 199 300 l 1,1,-1
 199 200 l 1,2,-1
 99 200 l 1,3,-1
 99 300 l 1,4,-1
 0 300 l 1,5,-1
 0 400 l 1,6,-1
 99 400 l 1,7,-1
 99 500 l 1,8,-1
 199 500 l 1,9,-1
 199 400 l 1,10,-1
 299 400 l 1,11,-1
 299 300 l 1,0,-1
EndSplineSet
Validated: 1
EndChar

StartChar: dotlessi
Encoding: 305 305 113
Width: 200
Flags: W
LayerCount: 2
Fore
SplineSet
101 400 m 1,0,-1
 0 400 l 1,1,-1
 0 700 l 1,2,-1
 101 700 l 1,3,-1
 101 400 l 1,0,-1
EndSplineSet
Validated: 1
EndChar

StartChar: Adieresis
Encoding: 196 196 117
Width: 600
Flags: W
LayerCount: 2
Fore
SplineSet
200 800 m 1,0,-1
 100 800 l 1,1,-1
 100 900 l 1,2,-1
 200 900 l 1,3,-1
 200 800 l 1,0,-1
400 800 m 1,4,-1
 300 800 l 1,5,-1
 300 900 l 1,6,-1
 400 900 l 1,7,-1
 400 800 l 1,4,-1
500 0 m 1,8,-1
 400 0 l 1,9,-1
 400 300 l 1,10,-1
 100 300 l 1,11,-1
 100 0 l 1,12,-1
 0 0 l 1,13,-1
 0 600 l 1,14,-1
 100 600 l 1,15,-1
 100 400 l 1,16,-1
 400 400 l 1,17,-1
 400 600 l 1,18,-1
 100 600 l 1,19,-1
 100 700 l 1,20,-1
 400 700 l 1,21,-1
 400 600 l 1,22,-1
 500 600 l 1,23,-1
 500 0 l 1,8,-1
EndSplineSet
Validated: 5
EndChar

StartChar: Aring
Encoding: 197 197 118
Width: 600
Flags: W
LayerCount: 2
Fore
SplineSet
100 800 m 1,0,-1
 100 900 l 1,1,-1
 200 900 l 1,2,-1
 200 800 l 1,3,-1
 300 800 l 1,4,-1
 300 700 l 1,5,-1
 400 700 l 1,6,-1
 400 600 l 1,7,-1
 100 600 l 1,8,-1
 100 700 l 1,9,-1
 200 700 l 1,10,-1
 200 800 l 1,11,-1
 100 800 l 1,0,-1
100 400 m 1,12,-1
 400 400 l 1,13,-1
 400 600 l 1,14,-1
 500 600 l 1,15,-1
 500 0 l 1,16,-1
 400 0 l 1,17,-1
 400 300 l 1,18,-1
 100 300 l 1,19,-1
 100 0 l 1,20,-1
 0 0 l 1,21,-1
 0 600 l 1,22,-1
 100 600 l 1,23,-1
 100 400 l 1,12,-1
300 800 m 1,24,-1
 300 900 l 1,25,-1
 400 900 l 1,26,-1
 400 800 l 1,27,-1
 300 800 l 1,24,-1
300 900 m 1,28,-1
 200 900 l 1,29,-1
 200 1000 l 1,30,-1
 300 1000 l 1,31,-1
 300 900 l 1,28,-1
EndSplineSet
Validated: 5
EndChar

StartChar: Ccedilla
Encoding: 199 199 119
Width: 600
Flags: W
LayerCount: 2
Fore
SplineSet
100 100 m 1,0,-1
 400 100 l 1,1,-1
 400 0 l 1,2,-1
 300 0 l 1,3,-1
 300 -100 l 1,4,-1
 200 -100 l 1,5,-1
 200 0 l 1,6,-1
 100 0 l 1,7,-1
 100 100 l 1,0,-1
100 100 m 1,8,-1
 0 100 l 1,9,-1
 0 600 l 1,10,-1
 100 600 l 1,11,-1
 100 100 l 1,8,-1
100 600 m 1,12,-1
 100 700 l 1,13,-1
 400 700 l 1,14,-1
 400 600 l 1,15,-1
 100 600 l 1,12,-1
400 600 m 1,16,-1
 500 600 l 1,17,-1
 500 500 l 1,18,-1
 400 500 l 1,19,-1
 400 600 l 1,16,-1
400 100 m 1,20,-1
 400 200 l 1,21,-1
 500 200 l 1,22,-1
 500 100 l 1,23,-1
 400 100 l 1,20,-1
300 -100 m 1,24,-1
 400 -100 l 1,25,-1
 400 -200 l 1,26,-1
 300 -200 l 1,27,-1
 300 -100 l 1,24,-1
EndSplineSet
Validated: 5
EndChar

StartChar: Eacute
Encoding: 201 201 120
Width: 600
Flags: W
LayerCount: 2
Fore
SplineSet
500 0 m 1,0,-1
 0 0 l 1,1,-1
 0 700 l 1,2,-1
 500 700 l 1,3,-1
 500 600 l 1,4,-1
 100 600 l 1,5,-1
 100 400 l 1,6,-1
 370 400 l 1,7,-1
 370 300 l 1,8,-1
 100 300 l 1,9,-1
 100 100 l 1,10,-1
 500 100 l 1,11,-1
 500 0 l 1,0,-1
300 900 m 1,12,-1
 300 1000 l 1,13,-1
 400 1000 l 1,14,-1
 400 900 l 1,15,-1
 300 900 l 1,12,-1
300 900 m 1,16,-1
 300 800 l 1,17,-1
 200 800 l 1,18,-1
 200 900 l 1,19,-1
 300 900 l 1,16,-1
EndSplineSet
Validated: 5
EndChar

StartChar: Ntilde
Encoding: 209 209 121
Width: 600
Flags: W
LayerCount: 2
Fore
SplineSet
0 700 m 1,0,-1
 100 700 l 1,1,-1
 100 600 l 1,2,-1
 200 600 l 1,3,-1
 200 500 l 1,4,-1
 300 500 l 1,5,-1
 300 400 l 1,6,-1
 200 400 l 1,7,-1
 200 500 l 1,8,-1
 100 500 l 1,9,-1
 100 0 l 1,10,-1
 0 0 l 1,11,-1
 0 700 l 1,0,-1
400 700 m 1,12,-1
 500 700 l 1,13,-1
 500 0 l 1,14,-1
 400 0 l 1,15,-1
 400 300 l 1,16,-1
 300 300 l 1,17,-1
 300 400 l 1,18,-1
 400 400 l 1,19,-1
 400 700 l 1,12,-1
100 800 m 1,20,-1
 0 800 l 1,21,-1
 0 900 l 1,22,-1
 100 900 l 1,23,-1
 100 800 l 1,20,-1
500 800 m 1,24,-1
 300 800 l 1,25,-1
 300 900 l 1,26,-1
 100 900 l 1,27,-1
 100 1000 l 1,28,-1
 300 1000 l 1,29,-1
 300 900 l 1,30,-1
 500 900 l 1,31,-1
 500 800 l 1,24,-1
EndSplineSet
EndChar

StartChar: Odieresis
Encoding: 214 214 122
Width: 600
Flags: W
LayerCount: 2
Fore
SplineSet
399 0 m 1,0,-1
 99 0 l 1,1,-1
 99 100 l 1,2,-1
 399 100 l 1,3,-1
 399 0 l 1,0,-1
199 800 m 1,4,-1
 99 800 l 1,5,-1
 99 900 l 1,6,-1
 199 900 l 1,7,-1
 199 800 l 1,4,-1
399 800 m 1,8,-1
 299 800 l 1,9,-1
 299 900 l 1,10,-1
 399 900 l 1,11,-1
 399 800 l 1,8,-1
99 100 m 1,12,-1
 0 100 l 1,13,-1
 0 600 l 1,14,-1
 99 600 l 1,15,-1
 99 100 l 1,12,-1
399 100 m 1,16,-1
 399 600 l 1,17,-1
 499 600 l 1,18,-1
 499 100 l 1,19,-1
 399 100 l 1,16,-1
399 600 m 1,20,-1
 99 600 l 1,21,-1
 99 700 l 1,22,-1
 399 700 l 1,23,-1
 399 600 l 1,20,-1
EndSplineSet
Validated: 5
EndChar

StartChar: Udieresis
Encoding: 220 220 123
Width: 600
Flags: W
LayerCount: 2
Fore
SplineSet
201 800 m 1,0,-1
 101 800 l 1,1,-1
 101 900 l 1,2,-1
 201 900 l 1,3,-1
 201 800 l 1,0,-1
401 800 m 1,4,-1
 301 800 l 1,5,-1
 301 900 l 1,6,-1
 401 900 l 1,7,-1
 401 800 l 1,4,-1
401 0 m 1,8,-1
 101 0 l 1,9,-1
 101 100 l 1,10,-1
 401 100 l 1,11,-1
 401 0 l 1,8,-1
101 100 m 1,12,-1
 0 100 l 1,13,-1
 0 700 l 1,14,-1
 101 700 l 1,15,-1
 101 100 l 1,12,-1
401 100 m 1,16,-1
 401 700 l 1,17,-1
 501 700 l 1,18,-1
 501 100 l 1,19,-1
 401 100 l 1,16,-1
EndSplineSet
Validated: 5
EndChar

StartChar: aacute
Encoding: 225 225 124
Width: 600
Flags: W
LayerCount: 2
Fore
SplineSet
299 599 m 1,0,-1
 199 599 l 1,1,-1
 199 700 l 1,2,-1
 299 700 l 1,3,-1
 299 599 l 1,0,-1
400 100 m 1,4,-1
 400 200 l 1,5,-1
 100 200 l 1,6,-1
 100 100 l 1,7,-1
 400 100 l 1,4,-1
500 0 m 1,8,-1
 100 0 l 1,9,-1
 100 100 l 1,10,-1
 0 100 l 1,11,-1
 0 200 l 1,12,-1
 100 200 l 1,13,-1
 100 300 l 1,14,-1
 400 300 l 1,15,-1
 400 400 l 1,16,-1
 500 400 l 1,17,-1
 500 0 l 1,8,-1
299 700 m 1,18,-1
 299 799 l 1,19,-1
 399 799 l 1,20,-1
 399 700 l 1,21,-1
 299 700 l 1,18,-1
400 400 m 1,22,-1
 100 400 l 1,23,-1
 100 500 l 1,24,-1
 400 500 l 1,25,-1
 400 400 l 1,22,-1
EndSplineSet
Validated: 5
EndChar

StartChar: agrave
Encoding: 224 224 125
Width: 600
Flags: W
LayerCount: 2
Fore
SplineSet
300 599 m 1,0,-1
 200 599 l 1,1,-1
 200 700 l 1,2,-1
 300 700 l 1,3,-1
 300 599 l 1,0,-1
400 100 m 1,4,-1
 400 200 l 1,5,-1
 100 200 l 1,6,-1
 100 100 l 1,7,-1
 400 100 l 1,4,-1
500 0 m 1,8,-1
 100 0 l 1,9,-1
 100 100 l 1,10,-1
 0 100 l 1,11,-1
 0 200 l 1,12,-1
 100 200 l 1,13,-1
 100 300 l 1,14,-1
 400 300 l 1,15,-1
 400 400 l 1,16,-1
 500 400 l 1,17,-1
 500 0 l 1,8,-1
200 700 m 1,18,-1
 100 700 l 1,19,-1
 100 799 l 1,20,-1
 200 799 l 1,21,-1
 200 700 l 1,18,-1
400 400 m 1,22,-1
 100 400 l 1,23,-1
 100 500 l 1,24,-1
 400 500 l 1,25,-1
 400 400 l 1,22,-1
EndSplineSet
Validated: 5
EndChar

StartChar: acircumflex
Encoding: 226 226 126
Width: 600
Flags: W
LayerCount: 2
Fore
SplineSet
400 100 m 1,0,-1
 400 200 l 1,1,-1
 100 200 l 1,2,-1
 100 100 l 1,3,-1
 400 100 l 1,0,-1
500 0 m 1,4,-1
 100 0 l 1,5,-1
 100 100 l 1,6,-1
 0 100 l 1,7,-1
 0 200 l 1,8,-1
 100 200 l 1,9,-1
 100 300 l 1,10,-1
 400 300 l 1,11,-1
 400 400 l 1,12,-1
 500 400 l 1,13,-1
 500 0 l 1,4,-1
400 400 m 1,14,-1
 100 400 l 1,15,-1
 100 500 l 1,16,-1
 400 500 l 1,17,-1
 400 400 l 1,14,-1
EndSplineSet
Validated: 5
EndChar

StartChar: adieresis
Encoding: 228 228 127
Width: 600
Flags: W
LayerCount: 2
Fore
SplineSet
201 600 m 1,0,-1
 101 600 l 1,1,-1
 101 700 l 1,2,-1
 201 700 l 1,3,-1
 201 600 l 1,0,-1
401 600 m 1,4,-1
 301 600 l 1,5,-1
 301 700 l 1,6,-1
 401 700 l 1,7,-1
 401 600 l 1,4,-1
400 100 m 1,8,-1
 400 200 l 1,9,-1
 100 200 l 1,10,-1
 100 100 l 1,11,-1
 400 100 l 1,8,-1
500 0 m 1,12,-1
 100 0 l 1,13,-1
 100 100 l 1,14,-1
 0 100 l 1,15,-1
 0 200 l 1,16,-1
 100 200 l 1,17,-1
 100 300 l 1,18,-1
 400 300 l 1,19,-1
 400 400 l 1,20,-1
 500 400 l 1,21,-1
 500 0 l 1,12,-1
400 400 m 1,22,-1
 100 400 l 1,23,-1
 100 500 l 1,24,-1
 400 500 l 1,25,-1
 400 400 l 1,22,-1
EndSplineSet
Validated: 5
EndChar

StartChar: atilde
Encoding: 227 227 128
Width: 600
Flags: W
LayerCount: 2
Fore
SplineSet
400 100 m 1,0,-1
 400 200 l 1,1,-1
 100 200 l 1,2,-1
 100 100 l 1,3,-1
 400 100 l 1,0,-1
500 0 m 1,4,-1
 100 0 l 1,5,-1
 100 100 l 1,6,-1
 0 100 l 1,7,-1
 0 200 l 1,8,-1
 100 200 l 1,9,-1
 100 300 l 1,10,-1
 400 300 l 1,11,-1
 400 400 l 1,12,-1
 500 400 l 1,13,-1
 500 0 l 1,4,-1
400 400 m 1,14,-1
 100 400 l 1,15,-1
 100 500 l 1,16,-1
 400 500 l 1,17,-1
 400 400 l 1,14,-1
EndSplineSet
Validated: 5
EndChar

StartChar: aring
Encoding: 229 229 129
Width: 600
Flags: W
LayerCount: 2
Fore
SplineSet
400 100 m 1,0,-1
 400 200 l 1,1,-1
 100 200 l 1,2,-1
 100 100 l 1,3,-1
 400 100 l 1,0,-1
500 0 m 1,4,-1
 100 0 l 1,5,-1
 100 100 l 1,6,-1
 0 100 l 1,7,-1
 0 200 l 1,8,-1
 100 200 l 1,9,-1
 100 300 l 1,10,-1
 400 300 l 1,11,-1
 400 400 l 1,12,-1
 500 400 l 1,13,-1
 500 0 l 1,4,-1
400 400 m 1,14,-1
 100 400 l 1,15,-1
 100 500 l 1,16,-1
 400 500 l 1,17,-1
 400 400 l 1,14,-1
EndSplineSet
Validated: 5
EndChar

StartChar: ccedilla
Encoding: 231 231 130
Width: 600
Flags: W
LayerCount: 2
Fore
SplineSet
100 400 m 1,0,-1
 100 100 l 1,1,-1
 400 100 l 1,2,-1
 400 0 l 1,3,-1
 300 0 l 1,4,-1
 300 -100 l 1,5,-1
 200 -100 l 1,6,-1
 200 0 l 1,7,-1
 100 0 l 1,8,-1
 100 100 l 1,9,-1
 0 100 l 1,10,-1
 0 400 l 1,11,-1
 100 400 l 1,0,-1
100 400 m 1,12,-1
 100 500 l 1,13,-1
 400 500 l 1,14,-1
 400 400 l 1,15,-1
 100 400 l 1,12,-1
400 400 m 1,16,-1
 500 400 l 1,17,-1
 500 300 l 1,18,-1
 400 300 l 1,19,-1
 400 400 l 1,16,-1
400 100 m 1,20,-1
 400 200 l 1,21,-1
 500 200 l 1,22,-1
 500 100 l 1,23,-1
 400 100 l 1,20,-1
300 -100 m 1,24,-1
 400 -100 l 1,25,-1
 400 -200 l 1,26,-1
 300 -200 l 1,27,-1
 300 -100 l 1,24,-1
EndSplineSet
Validated: 5
EndChar

StartChar: eacute
Encoding: 233 233 131
Width: 600
Flags: W
LayerCount: 2
Fore
SplineSet
300 600 m 1,0,-1
 200 600 l 1,1,-1
 200 700 l 1,2,-1
 300 700 l 1,3,-1
 300 600 l 1,0,-1
500 400 m 1,4,-1
 500 200 l 1,5,-1
 100 200 l 1,6,-1
 100 100 l 1,7,-1
 0 100 l 1,8,-1
 0 400 l 1,9,-1
 100 400 l 1,10,-1
 100 300 l 1,11,-1
 400 300 l 1,12,-1
 400 400 l 1,13,-1
 100 400 l 1,14,-1
 100 500 l 1,15,-1
 400 500 l 1,16,-1
 400 400 l 1,17,-1
 500 400 l 1,4,-1
300 700 m 1,18,-1
 300 800 l 1,19,-1
 400 800 l 1,20,-1
 400 700 l 1,21,-1
 300 700 l 1,18,-1
100 100 m 1,22,-1
 500 100 l 1,23,-1
 500 0 l 1,24,-1
 100 0 l 1,25,-1
 100 100 l 1,22,-1
EndSplineSet
Validated: 5
EndChar

StartChar: egrave
Encoding: 232 232 132
Width: 600
Flags: W
LayerCount: 2
Fore
SplineSet
301 600 m 1,0,-1
 201 600 l 1,1,-1
 201 700 l 1,2,-1
 301 700 l 1,3,-1
 301 600 l 1,0,-1
500 400 m 1,4,-1
 500 200 l 1,5,-1
 100 200 l 1,6,-1
 100 100 l 1,7,-1
 0 100 l 1,8,-1
 0 400 l 1,9,-1
 100 400 l 1,10,-1
 100 300 l 1,11,-1
 400 300 l 1,12,-1
 400 400 l 1,13,-1
 100 400 l 1,14,-1
 100 500 l 1,15,-1
 400 500 l 1,16,-1
 400 400 l 1,17,-1
 500 400 l 1,4,-1
201 700 m 1,18,-1
 101 700 l 1,19,-1
 101 800 l 1,20,-1
 201 800 l 1,21,-1
 201 700 l 1,18,-1
100 100 m 1,22,-1
 500 100 l 1,23,-1
 500 0 l 1,24,-1
 100 0 l 1,25,-1
 100 100 l 1,22,-1
EndSplineSet
Validated: 5
EndChar

StartChar: edieresis
Encoding: 235 235 133
Width: 600
Flags: W
LayerCount: 2
Fore
SplineSet
200 600 m 1,0,-1
 100 600 l 1,1,-1
 100 700 l 1,2,-1
 200 700 l 1,3,-1
 200 600 l 1,0,-1
400 600 m 1,4,-1
 300 600 l 1,5,-1
 300 700 l 1,6,-1
 400 700 l 1,7,-1
 400 600 l 1,4,-1
500 400 m 1,8,-1
 500 200 l 1,9,-1
 100 200 l 1,10,-1
 100 100 l 1,11,-1
 0 100 l 1,12,-1
 0 400 l 1,13,-1
 100 400 l 1,14,-1
 100 300 l 1,15,-1
 400 300 l 1,16,-1
 400 400 l 1,17,-1
 100 400 l 1,18,-1
 100 500 l 1,19,-1
 400 500 l 1,20,-1
 400 400 l 1,21,-1
 500 400 l 1,8,-1
100 100 m 1,22,-1
 500 100 l 1,23,-1
 500 0 l 1,24,-1
 100 0 l 1,25,-1
 100 100 l 1,22,-1
EndSplineSet
Validated: 5
EndChar

StartChar: iacute
Encoding: 237 237 134
Width: 300
Flags: W
LayerCount: 2
Fore
SplineSet
100 0 m 1,0,-1
 0 0 l 1,1,-1
 0 500 l 1,2,-1
 100 500 l 1,3,-1
 100 0 l 1,0,-1
100 600 m 1,4,-1
 0 600 l 1,5,-1
 0 700 l 1,6,-1
 100 700 l 1,7,-1
 100 600 l 1,4,-1
100 700 m 1,8,-1
 100 800 l 1,9,-1
 200 800 l 1,10,-1
 200 700 l 1,11,-1
 100 700 l 1,8,-1
EndSplineSet
Validated: 5
EndChar

StartChar: igrave
Encoding: 236 236 135
Width: 300
Flags: W
LayerCount: 2
Fore
SplineSet
200 0 m 1,0,-1
 100 0 l 1,1,-1
 100 500 l 1,2,-1
 200 500 l 1,3,-1
 200 0 l 1,0,-1
200 600 m 1,4,-1
 100 600 l 1,5,-1
 100 700 l 1,6,-1
 200 700 l 1,7,-1
 200 600 l 1,4,-1
100 700 m 1,8,-1
 0 700 l 1,9,-1
 0 800 l 1,10,-1
 100 800 l 1,11,-1
 100 700 l 1,8,-1
EndSplineSet
Validated: 5
EndChar

StartChar: idieresis
Encoding: 239 239 136
Width: 400
Flags: W
LayerCount: 2
Fore
SplineSet
199 0 m 1,0,-1
 99 0 l 1,1,-1
 99 500 l 1,2,-1
 199 500 l 1,3,-1
 199 0 l 1,0,-1
100 600 m 1,4,-1
 0 600 l 1,5,-1
 0 700 l 1,6,-1
 100 700 l 1,7,-1
 100 600 l 1,4,-1
300 600 m 1,8,-1
 200 600 l 1,9,-1
 200 700 l 1,10,-1
 300 700 l 1,11,-1
 300 600 l 1,8,-1
EndSplineSet
Validated: 1
EndChar

StartChar: ntilde
Encoding: 241 241 137
Width: 600
Flags: W
LayerCount: 2
Fore
SplineSet
400 600 m 1,0,-1
 0 600 l 1,1,-1
 0 700 l 1,2,-1
 400 700 l 1,3,-1
 400 600 l 1,0,-1
500 0 m 1,4,-1
 400 0 l 1,5,-1
 400 400 l 1,6,-1
 500 400 l 1,7,-1
 500 0 l 1,4,-1
400 400 m 1,8,-1
 100 400 l 1,9,-1
 100 0 l 1,10,-1
 0 0 l 1,11,-1
 0 500 l 1,12,-1
 400 500 l 1,13,-1
 400 400 l 1,8,-1
EndSplineSet
Validated: 5
EndChar

StartChar: oacute
Encoding: 243 243 138
Width: 600
Flags: W
LayerCount: 2
Fore
SplineSet
300 600 m 1,0,-1
 200 600 l 1,1,-1
 200 700 l 1,2,-1
 300 700 l 1,3,-1
 300 600 l 1,0,-1
400 0 m 1,4,-1
 100 0 l 1,5,-1
 100 100 l 1,6,-1
 400 100 l 1,7,-1
 400 0 l 1,4,-1
300 700 m 1,8,-1
 300 800 l 1,9,-1
 400 800 l 1,10,-1
 400 700 l 1,11,-1
 300 700 l 1,8,-1
100 100 m 1,12,-1
 0 100 l 1,13,-1
 0 400 l 1,14,-1
 100 400 l 1,15,-1
 100 100 l 1,12,-1
400 100 m 1,16,-1
 400 400 l 1,17,-1
 500 400 l 1,18,-1
 500 100 l 1,19,-1
 400 100 l 1,16,-1
400 400 m 1,20,-1
 100 400 l 1,21,-1
 100 500 l 1,22,-1
 400 500 l 1,23,-1
 400 400 l 1,20,-1
EndSplineSet
Validated: 5
EndChar

StartChar: ograve
Encoding: 242 242 139
Width: 600
Flags: W
LayerCount: 2
Fore
SplineSet
300 600 m 1,0,-1
 200 600 l 1,1,-1
 200 700 l 1,2,-1
 300 700 l 1,3,-1
 300 600 l 1,0,-1
400 0 m 1,4,-1
 100 0 l 1,5,-1
 100 100 l 1,6,-1
 400 100 l 1,7,-1
 400 0 l 1,4,-1
200 700 m 1,8,-1
 100 700 l 1,9,-1
 100 800 l 1,10,-1
 200 800 l 1,11,-1
 200 700 l 1,8,-1
100 100 m 1,12,-1
 0 100 l 1,13,-1
 0 400 l 1,14,-1
 100 400 l 1,15,-1
 100 100 l 1,12,-1
400 100 m 1,16,-1
 400 400 l 1,17,-1
 500 400 l 1,18,-1
 500 100 l 1,19,-1
 400 100 l 1,16,-1
400 400 m 1,20,-1
 100 400 l 1,21,-1
 100 500 l 1,22,-1
 400 500 l 1,23,-1
 400 400 l 1,20,-1
EndSplineSet
Validated: 5
EndChar

StartChar: odieresis
Encoding: 246 246 140
Width: 600
Flags: W
LayerCount: 2
Fore
SplineSet
200 600 m 1,0,-1
 100 600 l 1,1,-1
 100 700 l 1,2,-1
 200 700 l 1,3,-1
 200 600 l 1,0,-1
400 600 m 1,4,-1
 300 600 l 1,5,-1
 300 700 l 1,6,-1
 400 700 l 1,7,-1
 400 600 l 1,4,-1
400 0 m 1,8,-1
 100 0 l 1,9,-1
 100 100 l 1,10,-1
 400 100 l 1,11,-1
 400 0 l 1,8,-1
100 100 m 1,12,-1
 0 100 l 1,13,-1
 0 400 l 1,14,-1
 100 400 l 1,15,-1
 100 100 l 1,12,-1
400 100 m 1,16,-1
 400 400 l 1,17,-1
 500 400 l 1,18,-1
 500 100 l 1,19,-1
 400 100 l 1,16,-1
400 400 m 1,20,-1
 100 400 l 1,21,-1
 100 500 l 1,22,-1
 400 500 l 1,23,-1
 400 400 l 1,20,-1
EndSplineSet
Validated: 5
EndChar

StartChar: uacute
Encoding: 250 250 141
Width: 600
Flags: W
LayerCount: 2
Fore
SplineSet
300 600 m 1,0,-1
 200 600 l 1,1,-1
 200 700 l 1,2,-1
 300 700 l 1,3,-1
 300 600 l 1,0,-1
500 500 m 1,4,-1
 500 0 l 1,5,-1
 100 0 l 1,6,-1
 100 100 l 1,7,-1
 400 100 l 1,8,-1
 400 500 l 1,9,-1
 500 500 l 1,4,-1
300 700 m 1,10,-1
 300 800 l 1,11,-1
 400 800 l 1,12,-1
 400 700 l 1,13,-1
 300 700 l 1,10,-1
100 100 m 1,14,-1
 0 100 l 1,15,-1
 0 500 l 1,16,-1
 100 500 l 1,17,-1
 100 100 l 1,14,-1
EndSplineSet
Validated: 5
EndChar

StartChar: ugrave
Encoding: 249 249 142
Width: 600
Flags: W
LayerCount: 2
Fore
SplineSet
300 600 m 1,0,-1
 200 600 l 1,1,-1
 200 700 l 1,2,-1
 300 700 l 1,3,-1
 300 600 l 1,0,-1
500 500 m 1,4,-1
 500 0 l 1,5,-1
 100 0 l 1,6,-1
 100 100 l 1,7,-1
 400 100 l 1,8,-1
 400 500 l 1,9,-1
 500 500 l 1,4,-1
200 700 m 1,10,-1
 100 700 l 1,11,-1
 100 800 l 1,12,-1
 200 800 l 1,13,-1
 200 700 l 1,10,-1
100 100 m 1,14,-1
 0 100 l 1,15,-1
 0 500 l 1,16,-1
 100 500 l 1,17,-1
 100 100 l 1,14,-1
EndSplineSet
Validated: 5
EndChar

StartChar: udieresis
Encoding: 252 252 143
Width: 600
Flags: W
LayerCount: 2
Fore
SplineSet
200 600 m 1,0,-1
 100 600 l 1,1,-1
 100 700 l 1,2,-1
 200 700 l 1,3,-1
 200 600 l 1,0,-1
400 600 m 1,4,-1
 300 600 l 1,5,-1
 300 700 l 1,6,-1
 400 700 l 1,7,-1
 400 600 l 1,4,-1
500 500 m 1,8,-1
 500 0 l 1,9,-1
 100 0 l 1,10,-1
 100 100 l 1,11,-1
 400 100 l 1,12,-1
 400 500 l 1,13,-1
 500 500 l 1,8,-1
100 100 m 1,14,-1
 0 100 l 1,15,-1
 0 500 l 1,16,-1
 100 500 l 1,17,-1
 100 100 l 1,14,-1
EndSplineSet
Validated: 5
EndChar

StartChar: registered
Encoding: 174 174 144
Width: 900
Flags: W
LayerCount: 2
Fore
SplineSet
600 0 m 1,0,-1
 200 0 l 1,1,-1
 200 100 l 1,2,-1
 100 100 l 1,3,-1
 100 200 l 1,4,-1
 200 200 l 1,5,-1
 200 100 l 1,6,-1
 600 100 l 1,7,-1
 600 0 l 1,0,-1
100 200 m 1,8,-1
 0 200 l 1,9,-1
 0 600 l 1,10,-1
 100 600 l 1,11,-1
 100 200 l 1,8,-1
100 600 m 1,12,-1
 100 700 l 1,13,-1
 200 700 l 1,14,-1
 200 600 l 1,15,-1
 100 600 l 1,12,-1
600 100 m 1,16,-1
 600 200 l 1,17,-1
 700 200 l 1,18,-1
 700 100 l 1,19,-1
 600 100 l 1,16,-1
500 400 m 1,20,-1
 600 400 l 1,21,-1
 600 200 l 1,22,-1
 500 200 l 1,23,-1
 500 400 l 1,20,-1
500 400 m 1,24,-1
 413 400 l 1,25,-1
 413 200 l 1,26,-1
 300 200 l 1,27,-1
 300 600 l 1,28,-1
 500 600 l 1,29,-1
 500 400 l 1,24,-1
200 700 m 1,30,-1
 200 800 l 1,31,-1
 600 800 l 1,32,-1
 600 700 l 1,33,-1
 200 700 l 1,30,-1
700 200 m 1,34,-1
 700 600 l 1,35,-1
 800 600 l 1,36,-1
 800 200 l 1,37,-1
 700 200 l 1,34,-1
600 700 m 1,38,-1
 700 700 l 1,39,-1
 700 600 l 1,40,-1
 600 600 l 1,41,-1
 600 700 l 1,38,-1
EndSplineSet
Validated: 5
EndChar

StartChar: copyright
Encoding: 169 169 145
Width: 900
Flags: W
LayerCount: 2
Fore
SplineSet
600 0 m 1,0,-1
 200 0 l 1,1,-1
 200 100 l 1,2,-1
 100 100 l 1,3,-1
 100 200 l 1,4,-1
 200 200 l 1,5,-1
 200 100 l 1,6,-1
 600 100 l 1,7,-1
 600 0 l 1,0,-1
500 200 m 1,8,-1
 300 200 l 1,9,-1
 300 300 l 1,10,-1
 200 300 l 1,11,-1
 200 500 l 1,12,-1
 300 500 l 1,13,-1
 300 300 l 1,14,-1
 500 300 l 1,15,-1
 500 200 l 1,8,-1
100 200 m 1,16,-1
 0 200 l 1,17,-1
 0 600 l 1,18,-1
 100 600 l 1,19,-1
 100 200 l 1,16,-1
100 600 m 1,20,-1
 100 700 l 1,21,-1
 200 700 l 1,22,-1
 200 600 l 1,23,-1
 100 600 l 1,20,-1
600 100 m 1,24,-1
 600 200 l 1,25,-1
 700 200 l 1,26,-1
 700 100 l 1,27,-1
 600 100 l 1,24,-1
300 500 m 1,28,-1
 300 600 l 1,29,-1
 500 600 l 1,30,-1
 500 500 l 1,31,-1
 300 500 l 1,28,-1
200 700 m 1,32,-1
 200 800 l 1,33,-1
 600 800 l 1,34,-1
 600 700 l 1,35,-1
 200 700 l 1,32,-1
700 200 m 1,36,-1
 700 600 l 1,37,-1
 800 600 l 1,38,-1
 800 200 l 1,39,-1
 700 200 l 1,36,-1
600 700 m 1,40,-1
 700 700 l 1,41,-1
 700 600 l 1,42,-1
 600 600 l 1,43,-1
 600 700 l 1,40,-1
EndSplineSet
Validated: 5
EndChar

StartChar: lessequal
Encoding: 8804 8804 146
Width: 500
Flags: W
LayerCount: 2
Fore
SplineSet
301 100 m 1,0,-1
 201 100 l 1,1,-1
 201 200 l 1,2,-1
 101 200 l 1,3,-1
 101 300 l 1,4,-1
 1 300 l 1,5,-1
 1 400 l 1,6,-1
 101 400 l 1,7,-1
 101 500 l 1,8,-1
 201 500 l 1,9,-1
 201 600 l 1,10,-1
 301 600 l 1,11,-1
 301 100 l 1,0,-1
EndSplineSet
Validated: 1
EndChar

StartChar: greaterequal
Encoding: 8805 8805 147
Width: 500
Flags: W
LayerCount: 2
Fore
SplineSet
301 300 m 1,0,-1
 201 300 l 1,1,-1
 201 200 l 1,2,-1
 101 200 l 1,3,-1
 101 100 l 1,4,-1
 1 100 l 1,5,-1
 1 600 l 1,6,-1
 101 600 l 1,7,-1
 101 500 l 1,8,-1
 201 500 l 1,9,-1
 201 400 l 1,10,-1
 301 400 l 1,11,-1
 301 300 l 1,0,-1
EndSplineSet
Validated: 1
EndChar

StartChar: Agrave
Encoding: 192 192 149
Width: 600
Flags: W
LayerCount: 2
Fore
SplineSet
500 0 m 1,0,-1
 400 0 l 1,1,-1
 400 300 l 1,2,-1
 100 300 l 1,3,-1
 100 0 l 1,4,-1
 0 0 l 1,5,-1
 0 600 l 1,6,-1
 100 600 l 1,7,-1
 100 400 l 1,8,-1
 400 400 l 1,9,-1
 400 600 l 1,10,-1
 100 600 l 1,11,-1
 100 700 l 1,12,-1
 400 700 l 1,13,-1
 400 600 l 1,14,-1
 500 600 l 1,15,-1
 500 0 l 1,0,-1
300 800 m 1,16,-1
 200 800 l 1,17,-1
 200 900 l 1,18,-1
 300 900 l 1,19,-1
 300 800 l 1,16,-1
200 900 m 1,20,-1
 100 900 l 1,21,-1
 100 1000 l 1,22,-1
 200 1000 l 1,23,-1
 200 900 l 1,20,-1
EndSplineSet
Validated: 5
EndChar

StartChar: divide
Encoding: 247 247 150
Width: 600
Flags: W
LayerCount: 2
Fore
SplineSet
300 100 m 1,0,-1
 200 100 l 1,1,-1
 200 200 l 1,2,-1
 300 200 l 1,3,-1
 300 100 l 1,0,-1
500 300 m 1,4,-1
 0 300 l 1,5,-1
 0 400 l 1,6,-1
 500 400 l 1,7,-1
 500 300 l 1,4,-1
300 500 m 1,8,-1
 200 500 l 1,9,-1
 200 600 l 1,10,-1
 300 600 l 1,11,-1
 300 500 l 1,8,-1
EndSplineSet
Validated: 1
EndChar

StartChar: Aacute
Encoding: 193 193 151
Width: 600
Flags: W
LayerCount: 2
Fore
SplineSet
300 800 m 1,0,-1
 200 800 l 1,1,-1
 200 900 l 1,2,-1
 300 900 l 1,3,-1
 300 800 l 1,0,-1
500 0 m 1,4,-1
 400 0 l 1,5,-1
 400 300 l 1,6,-1
 100 300 l 1,7,-1
 100 0 l 1,8,-1
 0 0 l 1,9,-1
 0 600 l 1,10,-1
 100 600 l 1,11,-1
 100 400 l 1,12,-1
 400 400 l 1,13,-1
 400 600 l 1,14,-1
 100 600 l 1,15,-1
 100 700 l 1,16,-1
 400 700 l 1,17,-1
 400 600 l 1,18,-1
 500 600 l 1,19,-1
 500 0 l 1,4,-1
300 900 m 1,20,-1
 300 1000 l 1,21,-1
 400 1000 l 1,22,-1
 400 900 l 1,23,-1
 300 900 l 1,20,-1
EndSplineSet
Validated: 5
EndChar

StartChar: Edieresis
Encoding: 203 203 152
Width: 600
Flags: W
LayerCount: 2
Fore
SplineSet
200 800 m 1,0,-1
 100 800 l 1,1,-1
 100 900 l 1,2,-1
 200 900 l 1,3,-1
 200 800 l 1,0,-1
400 800 m 1,4,-1
 300 800 l 1,5,-1
 300 900 l 1,6,-1
 400 900 l 1,7,-1
 400 800 l 1,4,-1
500 0 m 1,8,-1
 0 0 l 1,9,-1
 0 700 l 1,10,-1
 500 700 l 1,11,-1
 500 600 l 1,12,-1
 100 600 l 1,13,-1
 100 400 l 1,14,-1
 370 400 l 1,15,-1
 370 300 l 1,16,-1
 100 300 l 1,17,-1
 100 100 l 1,18,-1
 500 100 l 1,19,-1
 500 0 l 1,8,-1
EndSplineSet
Validated: 1
EndChar

StartChar: Egrave
Encoding: 200 200 153
Width: 600
Flags: W
LayerCount: 2
Fore
SplineSet
300 800 m 1,0,-1
 200 800 l 1,1,-1
 200 900 l 1,2,-1
 300 900 l 1,3,-1
 300 800 l 1,0,-1
500 0 m 1,4,-1
 0 0 l 1,5,-1
 0 700 l 1,6,-1
 500 700 l 1,7,-1
 500 600 l 1,8,-1
 100 600 l 1,9,-1
 100 400 l 1,10,-1
 370 400 l 1,11,-1
 370 300 l 1,12,-1
 100 300 l 1,13,-1
 100 100 l 1,14,-1
 500 100 l 1,15,-1
 500 0 l 1,4,-1
200 900 m 1,16,-1
 100 900 l 1,17,-1
 100 1000 l 1,18,-1
 200 1000 l 1,19,-1
 200 900 l 1,16,-1
EndSplineSet
Validated: 5
EndChar

StartChar: Iacute
Encoding: 205 205 154
Width: 400
Flags: W
LayerCount: 2
Fore
SplineSet
300 0 m 1,0,-1
 0 0 l 1,1,-1
 0 100 l 1,2,-1
 100 100 l 1,3,-1
 100 600 l 1,4,-1
 0 600 l 1,5,-1
 0 700 l 1,6,-1
 300 700 l 1,7,-1
 300 600 l 1,8,-1
 200 600 l 1,9,-1
 200 100 l 1,10,-1
 300 100 l 1,11,-1
 300 0 l 1,0,-1
200 800 m 1,12,-1
 100 800 l 1,13,-1
 100 900 l 1,14,-1
 200 900 l 1,15,-1
 200 800 l 1,12,-1
200 900 m 1,16,-1
 200 1000 l 1,17,-1
 300 1000 l 1,18,-1
 300 900 l 1,19,-1
 200 900 l 1,16,-1
EndSplineSet
Validated: 5
EndChar

StartChar: Idieresis
Encoding: 207 207 155
Width: 400
Flags: W
LayerCount: 2
Fore
SplineSet
300 0 m 1,0,-1
 0 0 l 1,1,-1
 0 100 l 1,2,-1
 100 100 l 1,3,-1
 100 600 l 1,4,-1
 0 600 l 1,5,-1
 0 700 l 1,6,-1
 300 700 l 1,7,-1
 300 600 l 1,8,-1
 200 600 l 1,9,-1
 200 100 l 1,10,-1
 300 100 l 1,11,-1
 300 0 l 1,0,-1
100 800 m 1,12,-1
 0 800 l 1,13,-1
 0 900 l 1,14,-1
 100 900 l 1,15,-1
 100 800 l 1,12,-1
300 800 m 1,16,-1
 200 800 l 1,17,-1
 200 900 l 1,18,-1
 300 900 l 1,19,-1
 300 800 l 1,16,-1
EndSplineSet
Validated: 1
EndChar

StartChar: Igrave
Encoding: 204 204 156
Width: 400
Flags: W
LayerCount: 2
Fore
SplineSet
300 0 m 1,0,-1
 0 0 l 1,1,-1
 0 100 l 1,2,-1
 100 100 l 1,3,-1
 100 600 l 1,4,-1
 0 600 l 1,5,-1
 0 700 l 1,6,-1
 300 700 l 1,7,-1
 300 600 l 1,8,-1
 200 600 l 1,9,-1
 200 100 l 1,10,-1
 300 100 l 1,11,-1
 300 0 l 1,0,-1
200 800 m 1,12,-1
 100 800 l 1,13,-1
 100 900 l 1,14,-1
 200 900 l 1,15,-1
 200 800 l 1,12,-1
100 900 m 1,16,-1
 0 900 l 1,17,-1
 0 1000 l 1,18,-1
 100 1000 l 1,19,-1
 100 900 l 1,16,-1
EndSplineSet
Validated: 5
EndChar

StartChar: Oacute
Encoding: 211 211 157
Width: 600
Flags: W
LayerCount: 2
Fore
SplineSet
400 0 m 1,0,-1
 100 0 l 1,1,-1
 100 100 l 1,2,-1
 400 100 l 1,3,-1
 400 0 l 1,0,-1
300 800 m 1,4,-1
 200 800 l 1,5,-1
 200 900 l 1,6,-1
 300 900 l 1,7,-1
 300 800 l 1,4,-1
100 100 m 1,8,-1
 0 100 l 1,9,-1
 0 600 l 1,10,-1
 100 600 l 1,11,-1
 100 100 l 1,8,-1
400 100 m 1,12,-1
 400 600 l 1,13,-1
 500 600 l 1,14,-1
 500 100 l 1,15,-1
 400 100 l 1,12,-1
400 600 m 1,16,-1
 100 600 l 1,17,-1
 100 700 l 1,18,-1
 400 700 l 1,19,-1
 400 600 l 1,16,-1
300 900 m 1,20,-1
 300 1000 l 1,21,-1
 400 1000 l 1,22,-1
 400 900 l 1,23,-1
 300 900 l 1,20,-1
EndSplineSet
Validated: 5
EndChar

StartChar: Ograve
Encoding: 210 210 158
Width: 600
Flags: W
LayerCount: 2
Fore
SplineSet
399 0 m 1,0,-1
 99 0 l 1,1,-1
 99 99 l 1,2,-1
 399 99 l 1,3,-1
 399 0 l 1,0,-1
300 800 m 1,4,-1
 200 800 l 1,5,-1
 200 900 l 1,6,-1
 300 900 l 1,7,-1
 300 800 l 1,4,-1
99 99 m 1,8,-1
 0 99 l 1,9,-1
 0 599 l 1,10,-1
 99 599 l 1,11,-1
 99 99 l 1,8,-1
399 99 m 1,12,-1
 399 599 l 1,13,-1
 499 599 l 1,14,-1
 499 99 l 1,15,-1
 399 99 l 1,12,-1
399 599 m 1,16,-1
 99 599 l 1,17,-1
 99 700 l 1,18,-1
 399 700 l 1,19,-1
 399 599 l 1,16,-1
200 900 m 1,20,-1
 100 900 l 1,21,-1
 100 1000 l 1,22,-1
 200 1000 l 1,23,-1
 200 900 l 1,20,-1
EndSplineSet
Validated: 5
EndChar

StartChar: Uacute
Encoding: 218 218 159
Width: 600
Flags: W
LayerCount: 2
Fore
SplineSet
303 799 m 1,0,-1
 203 799 l 1,1,-1
 203 900 l 1,2,-1
 303 900 l 1,3,-1
 303 799 l 1,0,-1
401 0 m 1,4,-1
 101 0 l 1,5,-1
 101 100 l 1,6,-1
 401 100 l 1,7,-1
 401 0 l 1,4,-1
303 900 m 1,8,-1
 303 1000 l 1,9,-1
 403 1000 l 1,10,-1
 403 900 l 1,11,-1
 303 900 l 1,8,-1
101 100 m 1,12,-1
 0 100 l 1,13,-1
 0 700 l 1,14,-1
 101 700 l 1,15,-1
 101 100 l 1,12,-1
401 100 m 1,16,-1
 401 700 l 1,17,-1
 501 700 l 1,18,-1
 501 100 l 1,19,-1
 401 100 l 1,16,-1
EndSplineSet
Validated: 5
EndChar

StartChar: Ugrave
Encoding: 217 217 160
Width: 600
Flags: W
LayerCount: 2
Fore
SplineSet
300 799 m 1,0,-1
 200 799 l 1,1,-1
 200 899 l 1,2,-1
 300 899 l 1,3,-1
 300 799 l 1,0,-1
401 0 m 1,4,-1
 101 0 l 1,5,-1
 101 100 l 1,6,-1
 401 100 l 1,7,-1
 401 0 l 1,4,-1
200 899 m 1,8,-1
 100 899 l 1,9,-1
 100 999 l 1,10,-1
 200 999 l 1,11,-1
 200 899 l 1,8,-1
101 100 m 1,12,-1
 0 100 l 1,13,-1
 0 700 l 1,14,-1
 101 700 l 1,15,-1
 101 100 l 1,12,-1
401 100 m 1,16,-1
 401 700 l 1,17,-1
 501 700 l 1,18,-1
 501 100 l 1,19,-1
 401 100 l 1,16,-1
EndSplineSet
Validated: 5
EndChar

StartChar: ae
Encoding: 230 230 161
Width: 700
Flags: W
LayerCount: 2
Fore
SplineSet
598 400 m 1,0,-1
 598 200 l 1,1,-1
 400 200 l 1,2,-1
 400 100 l 1,3,-1
 300 100 l 1,4,-1
 300 200 l 1,5,-1
 300 300 l 1,6,-1
 100 300 l 1,7,-1
 100 200 l 1,8,-1
 300 200 l 1,9,-1
 300 300 l 1,10,-1
 300 400 l 1,11,-1
 400 400 l 1,12,-1
 400 300 l 1,13,-1
 498 300 l 1,14,-1
 498 400 l 1,15,-1
 400 400 l 1,16,-1
 400 500 l 1,17,-1
 498 500 l 1,18,-1
 498 400 l 1,19,-1
 598 400 l 1,0,-1
400 100 m 1,20,-1
 598 100 l 1,21,-1
 598 0 l 1,22,-1
 400 0 l 1,23,-1
 400 100 l 1,20,-1
300 400 m 1,24,-1
 300 500 l 1,25,-1
 100 500 l 1,26,-1
 100 400 l 1,27,-1
 300 400 l 1,24,-1
100 200 m 1,28,-1
 0 200 l 1,29,-1
 0 100 l 1,30,-1
 100 100 l 1,31,-1
 100 200 l 1,28,-1
100 100 m 1,32,-1
 100 0 l 1,33,-1
 300 0 l 1,34,-1
 300 100 l 1,35,-1
 100 100 l 1,32,-1
EndSplineSet
Validated: 5
EndChar

StartChar: ecircumflex
Encoding: 234 234 162
Width: 600
Flags: W
LayerCount: 2
Fore
SplineSet
500 400 m 1,0,-1
 500 200 l 1,1,-1
 100 200 l 1,2,-1
 100 100 l 1,3,-1
 0 100 l 1,4,-1
 0 400 l 1,5,-1
 100 400 l 1,6,-1
 100 300 l 1,7,-1
 400 300 l 1,8,-1
 400 400 l 1,9,-1
 100 400 l 1,10,-1
 100 500 l 1,11,-1
 400 500 l 1,12,-1
 400 400 l 1,13,-1
 500 400 l 1,0,-1
100 100 m 1,14,-1
 500 100 l 1,15,-1
 500 0 l 1,16,-1
 100 0 l 1,17,-1
 100 100 l 1,14,-1
EndSplineSet
Validated: 5
EndChar

StartChar: icircumflex
Encoding: 238 238 163
Width: 200
Flags: W
LayerCount: 2
Fore
SplineSet
100 0 m 1,0,-1
 0 0 l 1,1,-1
 0 500 l 1,2,-1
 100 500 l 1,3,-1
 100 0 l 1,0,-1
100 600 m 1,4,-1
 0 600 l 1,5,-1
 0 700 l 1,6,-1
 100 700 l 1,7,-1
 100 600 l 1,4,-1
EndSplineSet
Validated: 1
EndChar

StartChar: ocircumflex
Encoding: 244 244 164
Width: 600
Flags: W
LayerCount: 2
Fore
SplineSet
400 0 m 1,0,-1
 100 0 l 1,1,-1
 100 100 l 1,2,-1
 400 100 l 1,3,-1
 400 0 l 1,0,-1
100 100 m 1,4,-1
 0 100 l 1,5,-1
 0 400 l 1,6,-1
 100 400 l 1,7,-1
 100 100 l 1,4,-1
400 100 m 1,8,-1
 400 400 l 1,9,-1
 500 400 l 1,10,-1
 500 100 l 1,11,-1
 400 100 l 1,8,-1
400 400 m 1,12,-1
 100 400 l 1,13,-1
 100 500 l 1,14,-1
 400 500 l 1,15,-1
 400 400 l 1,12,-1
EndSplineSet
Validated: 5
EndChar

StartChar: otilde
Encoding: 245 245 165
Width: 600
Flags: W
LayerCount: 2
Fore
SplineSet
400 0 m 1,0,-1
 100 0 l 1,1,-1
 100 100 l 1,2,-1
 400 100 l 1,3,-1
 400 0 l 1,0,-1
100 100 m 1,4,-1
 0 100 l 1,5,-1
 0 400 l 1,6,-1
 100 400 l 1,7,-1
 100 100 l 1,4,-1
400 100 m 1,8,-1
 400 400 l 1,9,-1
 500 400 l 1,10,-1
 500 100 l 1,11,-1
 400 100 l 1,8,-1
400 400 m 1,12,-1
 100 400 l 1,13,-1
 100 500 l 1,14,-1
 400 500 l 1,15,-1
 400 400 l 1,12,-1
EndSplineSet
Validated: 5
EndChar

StartChar: oslash
Encoding: 248 248 166
Width: 600
Flags: W
LayerCount: 2
Fore
SplineSet
100 0 m 1,0,-1
 0 0 l 1,1,-1
 0 100 l 1,2,-1
 100 100 l 1,3,-1
 100 200 l 1,4,-1
 0 200 l 1,5,-1
 0 500 l 1,6,-1
 100 500 l 1,7,-1
 100 300 l 1,8,-1
 200 300 l 1,9,-1
 200 200 l 1,10,-1
 400 200 l 1,11,-1
 400 100 l 1,12,-1
 100 100 l 1,13,-1
 100 0 l 1,0,-1
400 200 m 1,14,-1
 400 400 l 1,15,-1
 300 400 l 1,16,-1
 300 500 l 1,17,-1
 100 500 l 1,18,-1
 100 600 l 1,19,-1
 400 600 l 1,20,-1
 400 500 l 1,21,-1
 500 500 l 1,22,-1
 500 200 l 1,23,-1
 400 200 l 1,14,-1
300 400 m 1,24,-1
 300 300 l 1,25,-1
 200 300 l 1,26,-1
 200 400 l 1,27,-1
 300 400 l 1,24,-1
400 600 m 1,28,-1
 400 700 l 1,29,-1
 500 700 l 1,30,-1
 500 600 l 1,31,-1
 400 600 l 1,28,-1
EndSplineSet
Validated: 5
EndChar

StartChar: ucircumflex
Encoding: 251 251 167
Width: 600
Flags: W
LayerCount: 2
Fore
SplineSet
500 500 m 1,0,-1
 500 0 l 1,1,-1
 100 0 l 1,2,-1
 100 100 l 1,3,-1
 400 100 l 1,4,-1
 400 500 l 1,5,-1
 500 500 l 1,0,-1
100 100 m 1,6,-1
 0 100 l 1,7,-1
 0 500 l 1,8,-1
 100 500 l 1,9,-1
 100 100 l 1,6,-1
EndSplineSet
Validated: 5
EndChar

StartChar: Ucircumflex
Encoding: 219 219 168
Width: 600
Flags: W
LayerCount: 2
Fore
SplineSet
401 0 m 1,0,-1
 101 0 l 1,1,-1
 101 100 l 1,2,-1
 401 100 l 1,3,-1
 401 0 l 1,0,-1
101 100 m 1,4,-1
 0 100 l 1,5,-1
 0 700 l 1,6,-1
 101 700 l 1,7,-1
 101 100 l 1,4,-1
401 100 m 1,8,-1
 401 700 l 1,9,-1
 501 700 l 1,10,-1
 501 100 l 1,11,-1
 401 100 l 1,8,-1
EndSplineSet
Validated: 5
EndChar

StartChar: Ocircumflex
Encoding: 212 212 169
Width: 600
Flags: W
LayerCount: 2
Fore
SplineSet
399 0 m 1,0,-1
 99 0 l 1,1,-1
 99 100 l 1,2,-1
 399 100 l 1,3,-1
 399 0 l 1,0,-1
99 100 m 1,4,-1
 0 100 l 1,5,-1
 0 600 l 1,6,-1
 99 600 l 1,7,-1
 99 100 l 1,4,-1
399 100 m 1,8,-1
 399 600 l 1,9,-1
 499 600 l 1,10,-1
 499 100 l 1,11,-1
 399 100 l 1,8,-1
399 600 m 1,12,-1
 99 600 l 1,13,-1
 99 700 l 1,14,-1
 399 700 l 1,15,-1
 399 600 l 1,12,-1
EndSplineSet
Validated: 5
EndChar

StartChar: Otilde
Encoding: 213 213 170
Width: 600
Flags: W
LayerCount: 2
Fore
SplineSet
399 0 m 1,0,-1
 99 0 l 1,1,-1
 99 100 l 1,2,-1
 399 100 l 1,3,-1
 399 0 l 1,0,-1
99 100 m 1,4,-1
 0 100 l 1,5,-1
 0 600 l 1,6,-1
 99 600 l 1,7,-1
 99 100 l 1,4,-1
399 100 m 1,8,-1
 399 600 l 1,9,-1
 499 600 l 1,10,-1
 499 100 l 1,11,-1
 399 100 l 1,8,-1
399 600 m 1,12,-1
 99 600 l 1,13,-1
 99 700 l 1,14,-1
 399 700 l 1,15,-1
 399 600 l 1,12,-1
EndSplineSet
Validated: 5
EndChar

StartChar: multiply
Encoding: 215 215 171
Width: 600
Flags: W
LayerCount: 2
Fore
SplineSet
100 100 m 1,0,-1
 0 100 l 1,1,-1
 0 200 l 1,2,-1
 100 200 l 1,3,-1
 100 100 l 1,0,-1
500 100 m 1,4,-1
 400 100 l 1,5,-1
 400 200 l 1,6,-1
 500 200 l 1,7,-1
 500 100 l 1,4,-1
100 200 m 1,8,-1
 100 300 l 1,9,-1
 200 300 l 1,10,-1
 200 200 l 1,11,-1
 100 200 l 1,8,-1
100 500 m 1,12,-1
 200 500 l 1,13,-1
 200 400 l 1,14,-1
 100 400 l 1,15,-1
 100 500 l 1,12,-1
100 500 m 1,16,-1
 0 500 l 1,17,-1
 0 600 l 1,18,-1
 100 600 l 1,19,-1
 100 500 l 1,16,-1
400 200 m 1,20,-1
 300 200 l 1,21,-1
 300 300 l 1,22,-1
 400 300 l 1,23,-1
 400 200 l 1,20,-1
200 400 m 1,24,-1
 300 400 l 1,25,-1
 300 300 l 1,26,-1
 200 300 l 1,27,-1
 200 400 l 1,24,-1
300 400 m 1,28,-1
 300 500 l 1,29,-1
 400 500 l 1,30,-1
 400 400 l 1,31,-1
 300 400 l 1,28,-1
400 500 m 1,32,-1
 400 600 l 1,33,-1
 500 600 l 1,34,-1
 500 500 l 1,35,-1
 400 500 l 1,32,-1
EndSplineSet
Validated: 5
EndChar

StartChar: Acircumflex
Encoding: 194 194 172
Width: 600
Flags: W
LayerCount: 2
Fore
SplineSet
500 0 m 1,0,-1
 400 0 l 1,1,-1
 400 300 l 1,2,-1
 100 300 l 1,3,-1
 100 0 l 1,4,-1
 0 0 l 1,5,-1
 0 600 l 1,6,-1
 100 600 l 1,7,-1
 100 400 l 1,8,-1
 400 400 l 1,9,-1
 400 600 l 1,10,-1
 100 600 l 1,11,-1
 100 700 l 1,12,-1
 400 700 l 1,13,-1
 400 600 l 1,14,-1
 500 600 l 1,15,-1
 500 0 l 1,0,-1
EndSplineSet
Validated: 5
EndChar

StartChar: Atilde
Encoding: 195 195 173
Width: 600
Flags: W
LayerCount: 2
Fore
SplineSet
500 0 m 1,0,-1
 400 0 l 1,1,-1
 400 300 l 1,2,-1
 100 300 l 1,3,-1
 100 0 l 1,4,-1
 0 0 l 1,5,-1
 0 600 l 1,6,-1
 100 600 l 1,7,-1
 100 400 l 1,8,-1
 400 400 l 1,9,-1
 400 600 l 1,10,-1
 100 600 l 1,11,-1
 100 700 l 1,12,-1
 400 700 l 1,13,-1
 400 600 l 1,14,-1
 500 600 l 1,15,-1
 500 0 l 1,0,-1
EndSplineSet
Validated: 5
EndChar

StartChar: AE
Encoding: 198 198 174
Width: 700
Flags: W
LayerCount: 2
Fore
SplineSet
200 600 m 1,0,-1
 100 600 l 1,1,-1
 100 400 l 1,2,-1
 200 400 l 1,3,-1
 200 600 l 1,0,-1
200 600 m 1,4,-1
 300 600 l 1,5,-1
 300 700 l 1,6,-1
 599 700 l 1,7,-1
 599 600 l 1,8,-1
 400 600 l 1,9,-1
 400 400 l 1,10,-1
 500 400 l 1,11,-1
 500 300 l 1,12,-1
 400 300 l 1,13,-1
 400 100 l 1,14,-1
 600 100 l 1,15,-1
 600 0 l 1,16,-1
 200 0 l 1,17,-1
 200 300 l 1,18,-1
 100 300 l 1,19,-1
 100 0 l 1,20,-1
 0 0 l 1,21,-1
 0 600 l 1,22,-1
 100 600 l 1,23,-1
 100 700 l 1,24,-1
 200 700 l 1,25,-1
 200 600 l 1,4,-1
EndSplineSet
Validated: 5
EndChar

StartChar: Oslash
Encoding: 216 216 175
Width: 600
Flags: W
LayerCount: 2
Fore
SplineSet
100 0 m 1,0,-1
 0 0 l 1,1,-1
 0 100 l 1,2,-1
 100 100 l 1,3,-1
 100 200 l 1,4,-1
 0 200 l 1,5,-1
 0 600 l 1,6,-1
 100 600 l 1,7,-1
 100 300 l 1,8,-1
 200 300 l 1,9,-1
 200 200 l 1,10,-1
 400 200 l 1,11,-1
 400 100 l 1,12,-1
 100 100 l 1,13,-1
 100 0 l 1,0,-1
400 200 m 1,14,-1
 400 500 l 1,15,-1
 300 500 l 1,16,-1
 300 600 l 1,17,-1
 100 600 l 1,18,-1
 100 700 l 1,19,-1
 400 700 l 1,20,-1
 400 600 l 1,21,-1
 500 600 l 1,22,-1
 500 200 l 1,23,-1
 400 200 l 1,14,-1
300 500 m 1,24,-1
 300 300 l 1,25,-1
 200 300 l 1,26,-1
 200 500 l 1,27,-1
 300 500 l 1,24,-1
400 700 m 1,28,-1
 400 800 l 1,29,-1
 500 800 l 1,30,-1
 500 700 l 1,31,-1
 400 700 l 1,28,-1
EndSplineSet
Validated: 5
EndChar

StartChar: Ecircumflex
Encoding: 202 202 176
Width: 600
Flags: W
LayerCount: 2
Fore
SplineSet
500 0 m 1,0,-1
 0 0 l 1,1,-1
 0 700 l 1,2,-1
 500 700 l 1,3,-1
 500 600 l 1,4,-1
 100 600 l 1,5,-1
 100 400 l 1,6,-1
 370 400 l 1,7,-1
 370 300 l 1,8,-1
 100 300 l 1,9,-1
 100 100 l 1,10,-1
 500 100 l 1,11,-1
 500 0 l 1,0,-1
EndSplineSet
Validated: 1
EndChar

StartChar: Icircumflex
Encoding: 206 206 177
Width: 400
Flags: W
LayerCount: 2
Fore
SplineSet
300 0 m 1,0,-1
 0 0 l 1,1,-1
 0 100 l 1,2,-1
 100 100 l 1,3,-1
 100 600 l 1,4,-1
 0 600 l 1,5,-1
 0 700 l 1,6,-1
 300 700 l 1,7,-1
 300 600 l 1,8,-1
 200 600 l 1,9,-1
 200 100 l 1,10,-1
 300 100 l 1,11,-1
 300 0 l 1,0,-1
EndSplineSet
Validated: 1
EndChar

StartChar: Eth
Encoding: 208 208 178
Width: 600
Flags: W
LayerCount: 2
Fore
SplineSet
500 100 m 1,0,-1
 400 100 l 1,1,-1
 400 0 l 1,2,-1
 0 0 l 1,3,-1
 0 700 l 1,4,-1
 400 700 l 1,5,-1
 400 601 l 1,6,-1
 100 601 l 1,7,-1
 100 101 l 1,8,-1
 400 101 l 1,9,-1
 400 601 l 1,10,-1
 500 601 l 1,11,-1
 500 100 l 1,0,-1
EndSplineSet
Validated: 5
EndChar

StartChar: Yacute
Encoding: 221 221 179
Width: 600
Flags: W
LayerCount: 2
Fore
SplineSet
299 0 m 1,0,-1
 199 0 l 1,1,-1
 199 400 l 1,2,-1
 299 400 l 1,3,-1
 299 0 l 1,0,-1
199 400 m 1,4,-1
 99 400 l 1,5,-1
 99 500 l 1,6,-1
 199 500 l 1,7,-1
 199 400 l 1,4,-1
99 500 m 1,8,-1
 0 500 l 1,9,-1
 0 700 l 1,10,-1
 99 700 l 1,11,-1
 99 500 l 1,8,-1
299 400 m 1,12,-1
 299 500 l 1,13,-1
 399 500 l 1,14,-1
 399 400 l 1,15,-1
 299 400 l 1,12,-1
399 500 m 1,16,-1
 399 700 l 1,17,-1
 499 700 l 1,18,-1
 499 500 l 1,19,-1
 399 500 l 1,16,-1
EndSplineSet
Validated: 5
EndChar
